0
SECTION
2
HEADER
9
$INSUNITS
70
4
9
$ACADVER
1
AC1014
9
$HANDSEED
5
FFFF
0
ENDSEC
0
SECTION
2
TABLES
0
TABLE
2
VPORT
5
8
100
AcDbSymbolTable
0
ENDTAB
0
TABLE
2
LTYPE
5
5
100
AcDbSymbolTable
0
LTYPE
5
14
100
AcDbSymbolTableRecord
100
AcDbLinetypeTableRecord
2
BYBLOCK
70
0
0
LTYPE
5
15
100
AcDbSymbolTableRecord
100
AcDbLinetypeTableRecord
2
BYLAYER
70
0
0
ENDTAB
0
TABLE
2
LAYER
5
2
100
AcDbSymbolTable
70
2
0
LAYER
5
50
100
AcDbSymbolTableRecord
100
AcDbLayerTableRecord
2
0
70
0
6
CONTINUOUS
0
ENDTAB
0
TABLE
2
STYLE
5
3
100
AcDbSymbolTable
70
1
0
STYLE
5
11
100
AcDbSymbolTableRecord
100
AcDbTextStyleTableRecord
2
STANDARD
70
0
0
ENDTAB
0
TABLE
2
VIEW
5
6
100
AcDbSymbolTable
70
0
0
ENDTAB
0
TABLE
2
UCS
5
7
100
AcDbSymbolTable
70
0
0
ENDTAB
0
TABLE
2
APPID
5
9
100
AcDbSymbolTable
70
2
0
APPID
5
12
100
AcDbSymbolTableRecord
100
AcDbRegAppTableRecord
2
ACAD
70
0
0
ENDTAB
0
TABLE
2
DIMSTYLE
5
A
100
AcDbSymbolTable
70
1
0
ENDTAB
0
TABLE
2
BLOCK_RECORD
5
1
100
AcDbSymbolTable
70
1
0
BLOCK_RECORD
5
1F
100
AcDbSymbolTableRecord
100
AcDbBlockTableRecord
2
*MODEL_SPACE
0
BLOCK_RECORD
5
1B
100
AcDbSymbolTableRecord
100
AcDbBlockTableRecord
2
*PAPER_SPACE
0
ENDTAB
0
ENDSEC
0
SECTION
2
BLOCKS
0
BLOCK
5
20
100
AcDbEntity
100
AcDbBlockBegin
2
*MODEL_SPACE
0
ENDBLK
5
21
100
AcDbEntity
100
AcDbBlockEnd
0
BLOCK
5
1C
100
AcDbEntity
100
AcDbBlockBegin
2
*PAPER_SPACE
0
ENDBLK
5
1D
100
AcDbEntity
100
AcDbBlockEnd
0
ENDSEC
0
SECTION
2
ENTITIES
0
SPLINE
5
100
100
AcDbEntity
8
0
100
AcDbSpline
70
4
71
5
72
46
73
40
74
0
42
0.000000001
43
0.0000000001
44
0.0000000001
40
0
40
0
40
0
40
0
40
0
40
0
40
0.028571428571428571
40
0.057142857142857141
40
0.085714285714285715
40
0.11428571428571428
40
0.14285714285714285
40
0.17142857142857143
40
0.20000000000000001
40
0.22857142857142859
40
0.25714285714285717
40
0.28571428571428575
40
0.31428571428571433
40
0.34285714285714292
40
0.3714285714285715
40
0.40000000000000008
40
0.42857142857142866
40
0.45714285714285724
40
0.48571428571428582
40
0.51428571428571435
40
0.54285714285714293
40
0.57142857142857151
40
0.60000000000000009
40
0.62857142857142867
40
0.65714285714285725
40
0.68571428571428583
40
0.71428571428571441
40
0.74285714285714299
40
0.77142857142857157
40
0.80000000000000016
40
0.82857142857142874
40
0.85714285714285732
40
0.8857142857142859
40
0.91428571428571448
40
0.94285714285714306
40
0.97142857142857164
40
1
40
1
40
1
40
1
40
1
40
1
41
1
41
1
41
1
41
1
41
1
41
1
41
1
41
1
41
1
41
1
41
1
41
1
41
1
41
1
41
1
41
1
41
1
41
1
41
1
41
1
41
1
41
1
41
1
41
1
41
1
41
1
41
1
41
1
41
1
41
1
41
1
41
1
41
1
41
1
41
1
41
1
41
1
41
1
41
1
41
1
10
121.79394106917221
20
37.99692621857006
30
0
10
121.47214434276415
20
38.032735619528808
30
0
10
120.82817389209468
20
38.119667658843298
30
0
10
119.86108713758745
20
38.296005584033814
30
0
10
118.56939325844492
20
38.623063216401043
30
0
10
116.9522231534644
20
39.184685017368011
30
0
10
115.3359195150483
20
39.897141525644329
30
0
10
113.72718598936721
20
40.756051105132101
30
0
10
112.1371748117874
20
41.753507509810063
30
0
10
110.58158652440582
20
42.880242209838492
30
0
10
109.08084463718995
20
44.128225765910727
30
0
10
107.65998195135631
20
45.492756433832383
30
0
10
106.34933514507041
20
46.975572842182387
30
0
10
105.18265420091454
20
48.584790723295825
30
0
10
104.19103797166886
20
50.32959677852449
30
0
10
103.39740196005094
20
52.215863945945451
30
0
10
102.8115142057971
20
54.241927101694962
30
0
10
102.42261765501746
20
56.392852693489687
30
0
10
102.20284270268637
20
58.641855988945693
30
0
10
102.11691239317713
20
60.955951287148793
30
0
10
102.13011372283984
20
63.300388046059112
30
0
10
102.21639309818039
20
65.643274588413007
30
0
10
102.36777637692695
20
67.960816384099644
30
0
10
102.59897120509387
20
70.240120337395041
30
0
10
102.93789394949356
20
72.474823328370178
30
0
10
103.41890674024739
20
74.662100056981586
30
0
10
104.07487837650183
20
76.799106908454377
30
0
10
104.93005659970983
20
78.879787201389448
30
0
10
105.99168037525266
20
80.891221289837304
30
0
10
107.25394045064084
20
82.814323156627012
30
0
10
108.70303292372913
20
84.624976592633431
30
0
10
110.32193307311712
20
86.29495299908298
30
0
10
112.09482766092626
20
87.793006694808881
30
0
10
114.01268520625182
20
89.085649558774733
30
0
10
116.07427053575341
20
90.139039476472078
30
0
10
118.28281422918835
20
90.921914706487456
30
0
10
120.17167738437585
20
91.311003231386195
30
0
10
121.65935191262237
20
91.461334647783332
30
0
10
122.68305170152912
20
91.497747188190729
30
0
10
123.20288071385349
20
91.500001363456235
30
0
0
SPLINE
5
101
100
AcDbEntity
8
0
100
AcDbSpline
70
4
71
5
72
46
73
40
74
0
42
0.000000001
43
0.0000000001
44
0.0000000001
40
0
40
0
40
0
40
0
40
0
40
0
40
0.028571428571428571
40
0.057142857142857141
40
0.085714285714285715
40
0.11428571428571428
40
0.14285714285714285
40
0.17142857142857143
40
0.20000000000000001
40
0.22857142857142859
40
0.25714285714285717
40
0.28571428571428575
40
0.31428571428571433
40
0.34285714285714292
40
0.3714285714285715
40
0.40000000000000008
40
0.42857142857142866
40
0.45714285714285724
40
0.48571428571428582
40
0.51428571428571435
40
0.54285714285714293
40
0.57142857142857151
40
0.60000000000000009
40
0.62857142857142867
40
0.65714285714285725
40
0.68571428571428583
40
0.71428571428571441
40
0.74285714285714299
40
0.77142857142857157
40
0.80000000000000016
40
0.82857142857142874
40
0.85714285714285732
40
0.8857142857142859
40
0.91428571428571448
40
0.94285714285714306
40
0.97142857142857164
40
1
40
1
40
1
40
1
40
1
40
1
41
1
41
1
41
1
41
1
41
1
41
1
41
1
41
1
41
1
41
1
41
1
41
1
41
1
41
1
41
1
41
1
41
1
41
1
41
1
41
1
41
1
41
1
41
1
41
1
41
1
41
1
41
1
41
1
41
1
41
1
41
1
41
1
41
1
41
1
41
1
41
1
41
1
41
1
41
1
41
1
10
124.61182035853477
20
37.99692621857006
30
0
10
124.93361708494282
20
38.032735619528808
30
0
10
125.5775875356133
20
38.119667658843298
30
0
10
126.54467429012558
20
38.296005584033814
30
0
10
127.83636816927239
20
38.623063216401043
30
0
10
129.45353827425066
20
39.184685017368011
30
0
10
131.06984191265909
20
39.897141525644329
30
0
10
132.6785754383333
20
40.756051105132101
30
0
10
134.2685866159093
20
41.753507509810063
30
0
10
135.82417490329215
20
42.880242209838492
30
0
10
137.32491679051421
20
44.128225765910727
30
0
10
138.74577947635288
20
45.492756433832383
30
0
10
140.05642628264096
20
46.975572842182387
30
0
10
141.2231072267962
20
48.584790723295825
30
0
10
142.21472345604053
20
50.32959677852449
30
0
10
143.00835946765662
20
52.215863945945451
30
0
10
143.59424722190903
20
54.241927101694962
30
0
10
143.98314377268724
20
56.392852693489687
30
0
10
144.20291872501807
20
58.641855988945693
30
0
10
144.2888490345282
20
60.955951287148793
30
0
10
144.27564770486674
20
63.300388046059112
30
0
10
144.18936832952693
20
65.643274588413007
30
0
10
144.03798505078018
20
67.960816384099644
30
0
10
143.8067902226118
20
70.240120337395041
30
0
10
143.46786747821153
20
72.474823328370178
30
0
10
142.98685468745811
20
74.662100056981586
30
0
10
142.33088305120506
20
76.799106908454377
30
0
10
141.47570482799833
20
78.879787201389448
30
0
10
140.4140810524562
20
80.891221289837304
30
0
10
139.15182097706793
20
82.814323156627012
30
0
10
137.7027285039789
20
84.624976592633431
30
0
10
136.08382835459014
20
86.29495299908298
30
0
10
134.31093376678044
20
87.793006694808881
30
0
10
132.39307622145427
20
89.085649558774733
30
0
10
130.33149089195288
20
90.139039476472078
30
0
10
128.12294719851803
20
90.921914706487456
30
0
10
126.23408404333085
20
91.311003231386195
30
0
10
124.74640951508478
20
91.461334647783332
30
0
10
123.72270972617785
20
91.497747188190729
30
0
10
123.20288071385349
20
91.500001363456235
30
0
0
SPLINE
5
102
100
AcDbEntity
8
0
100
AcDbSpline
70
4
71
5
72
21
73
15
74
0
42
0.000000001
43
0.0000000001
44
0.0000000001
40
0
40
0
40
0
40
0
40
0
40
0
40
0.10000000000000001
40
0.20000000000000001
40
0.30000000000000004
40
0.40000000000000002
40
0.5
40
0.59999999999999998
40
0.69999999999999996
40
0.79999999999999993
40
0.89999999999999991
40
1
40
1
40
1
40
1
40
1
40
1
41
1
41
1
41
1
41
1
41
1
41
1
41
1
41
1
41
1
41
1
41
1
41
1
41
1
41
1
41
1
10
121.79394106917221
20
37.99692621857006
30
0
10
121.81764322561277
20
37.989273981907495
30
0
10
121.86358407294117
20
37.969040218359559
30
0
10
121.92810486305213
20
37.923901418684935
30
0
10
122.00520787627794
20
37.833655876824629
30
0
10
122.08582233541379
20
37.667751118650031
30
0
10
122.14965352586277
20
37.445316432460658
30
0
10
122.19604458439441
20
37.164139351056605
30
0
10
122.22567153560355
20
36.826496881529671
30
0
10
122.24000799734407
20
36.437352509436941
30
0
10
122.24063976427354
20
36.00204755775011
30
0
10
122.23125899091994
20
35.620504634047151
30
0
10
122.21904912039626
20
35.316919234981825
30
0
10
122.20864719281353
20
35.106909983339179
30
0
10
122.20288069895233
20
35.000000521540628
30
0
0
SPLINE
5
103
100
AcDbEntity
8
0
100
AcDbSpline
70
4
71
5
72
31
73
25
74
0
42
0.000000001
43
0.0000000001
44
0.0000000001
40
0
40
0
40
0
40
0
40
0
40
0
40
0.050000000000000003
40
0.10000000000000001
40
0.15000000000000002
40
0.20000000000000001
40
0.25
40
0.29999999999999999
40
0.34999999999999998
40
0.39999999999999997
40
0.44999999999999996
40
0.49999999999999994
40
0.54999999999999993
40
0.59999999999999998
40
0.65000000000000002
40
0.70000000000000007
40
0.75000000000000011
40
0.80000000000000016
40
0.8500000000000002
40
0.90000000000000024
40
0.95000000000000029
40
1
40
1
40
1
40
1
40
1
40
1
41
1
41
1
41
1
41
1
41
1
41
1
41
1
41
1
41
1
41
1
41
1
41
1
41
1
41
1
41
1
41
1
41
1
41
1
41
1
41
1
41
1
41
1
41
1
41
1
41
1
10
124.61182035853477
20
37.99692621857006
30
0
10
124.58626787480202
20
37.999763019484739
30
0
10
124.53648341592924
20
38.002827305194479
30
0
10
124.46576826916657
20
37.999595822859511
30
0
10
124.37943668404527
20
37.979567157738941
30
0
10
124.28488117948801
20
37.927887329920004
30
0
10
124.20364752583072
20
37.84888477302686
30
0
10
124.13540315873465
20
37.741723407342839
30
0
10
124.07932031177768
20
37.605480133523542
30
0
10
124.03420488350066
20
37.439576924315517
30
0
10
123.99864667770481
20
37.244280695753169
30
0
10
123.9711449692186
20
37.021209840486037
30
0
10
123.95023313750573
20
36.773919233738496
30
0
10
123.93458861840389
20
36.508434564213495
30
0
10
123.92303757661522
20
36.232353901508326
30
0
10
123.91456237599115
20
35.954064563976061
30
0
10
123.90830593101825
20
35.681943119691432
30
0
10
123.90357611779032
20
35.423580132182487
30
0
10
123.89985079093358
20
35.184960714439526
30
0
10
123.8967818968503
20
34.969683982699195
30
0
10
123.89415856611001
20
34.779608304680906
30
0
10
123.89233019535295
20
34.648239809414925
30
0
10
123.89109372178817
20
34.561354760251071
30
0
10
123.8903290774779
20
34.50858418092151
30
0
10
123.88996167309779
20
34.483487094008879
30
0
0
LINE
5
104
100
AcDbEntity
8
0
100
AcDbLine
10
122.20288069895233
20
35.000000521540628
30
0
11
122.49869513935808
21
-8.179610872830203
31
0
0
LINE
5
105
100
AcDbEntity
8
0
100
AcDbLine
10
123.88996167309779
20
34.483487094008879
30
0
11
123.88996167309779
21
-8.179610872830203
31
0
0
LINE
5
106
100
AcDbEntity
8
0
100
AcDbLine
10
123.88996167309779
20
-8.179610872830203
30
0
11
125.01843118367093
21
-15.716970962711546
31
0
0
LINE
5
107
100
AcDbEntity
8
0
100
AcDbLine
10
125.01843118367093
20
-15.716970962711546
30
0
11
125.17944027042121
21
-16.792395201655687
31
0
0
LINE
5
108
100
AcDbEntity
8
0
100
AcDbLine
10
125.17944027042121
20
-16.792395201655687
30
0
11
125.40637460992602
21
-18.308152444169369
31
0
0
LINE
5
109
100
AcDbEntity
8
0
100
AcDbLine
10
125.40637460992602
20
-18.308152444169369
30
0
11
125.86494786835752
21
-21.371090116834509
31
0
0
LINE
5
110
100
AcDbEntity
8
0
100
AcDbLine
10
125.86494786835752
20
-21.371090116834509
30
0
11
125.86494786835752
21
-47.00000070035459
31
0
0
SPLINE
5
111
100
AcDbEntity
8
0
100
AcDbSpline
70
4
71
5
72
46
73
40
74
0
42
0.000000001
43
0.0000000001
44
0.0000000001
40
0
40
0
40
0
40
0
40
0
40
0
40
0.028571428571428571
40
0.057142857142857141
40
0.085714285714285715
40
0.11428571428571428
40
0.14285714285714285
40
0.17142857142857143
40
0.20000000000000001
40
0.22857142857142859
40
0.25714285714285717
40
0.28571428571428575
40
0.31428571428571433
40
0.34285714285714292
40
0.3714285714285715
40
0.40000000000000008
40
0.42857142857142866
40
0.45714285714285724
40
0.48571428571428582
40
0.51428571428571435
40
0.54285714285714293
40
0.57142857142857151
40
0.60000000000000009
40
0.62857142857142867
40
0.65714285714285725
40
0.68571428571428583
40
0.71428571428571441
40
0.74285714285714299
40
0.77142857142857157
40
0.80000000000000016
40
0.82857142857142874
40
0.85714285714285732
40
0.8857142857142859
40
0.91428571428571448
40
0.94285714285714306
40
0.97142857142857164
40
1
40
1
40
1
40
1
40
1
40
1
41
1
41
1
41
1
41
1
41
1
41
1
41
1
41
1
41
1
41
1
41
1
41
1
41
1
41
1
41
1
41
1
41
1
41
1
41
1
41
1
41
1
41
1
41
1
41
1
41
1
41
1
41
1
41
1
41
1
41
1
41
1
41
1
41
1
41
1
41
1
41
1
41
1
41
1
41
1
41
1
10
125.86494786835752
20
-47.00000070035459
30
0
10
125.90811316033117
20
-47.077194038428978
30
0
10
125.99256798990976
20
-47.23194221909214
30
0
10
126.1136229148421
20
-47.465148949158745
30
0
10
126.26376037207878
20
-47.778263537816343
30
0
10
126.43195755864106
20
-48.172756763205591
30
0
10
126.57875974548583
20
-48.568766049438281
30
0
10
126.70041785021972
20
-48.963079568036328
30
0
10
126.79080777069707
20
-49.350343477703177
30
0
10
126.8407190462017
20
-49.722390202323794
30
0
10
126.83918265227803
20
-50.069527505028219
30
0
10
126.77504263187154
20
-50.382078119454583
30
0
10
126.63836738192474
20
-50.651724961917012
30
0
10
126.42212129804294
20
-50.873200481392438
30
0
10
126.12299448019085
20
-51.0447960677065
30
0
10
125.74156413171542
20
-51.167916380957919
30
0
10
125.2826512980472
20
-51.246904721398394
30
0
10
124.75567864700463
20
-51.288825349616445
30
0
10
124.1749245116842
20
-51.303155957860767
30
0
10
123.55819958497079
20
-51.300054791474921
30
0
10
122.92567432230175
20
-51.288722580583212
30
0
10
122.29867160006562
20
-51.275793989177103
30
0
10
121.69847712266601
20
-51.263554859376079
30
0
10
121.1451632142913
20
-51.248565222024311
30
0
10
120.65635237000735
20
-51.219214524034975
30
0
10
120.24617247500983
20
-51.156865700556352
30
0
10
119.92451553707096
20
-51.041417923501136
30
0
10
119.69611263306749
20
-50.855958385044758
30
0
10
119.55981747384527
20
-50.591334095991265
30
0
10
119.50731944139024
20
-50.251991901862681
30
0
10
119.52495796780025
20
-49.853469353479049
30
0
10
119.59649568955734
20
-49.41723366499312
30
0
10
119.70551463876538
20
-48.966508472748444
30
0
10
119.83803085422259
20
-48.52158509962949
30
0
10
119.98481326893126
20
-48.095701380833809
30
0
10
120.14029499037854
20
-47.696715084138901
30
0
10
120.26941321713963
20
-47.402089441004904
30
0
10
120.36848947093675
20
-47.195471655985102
30
0
10
120.43553367377808
20
-47.064096071597696
30
0
10
120.4693041052783
20
-47.00000070035459
30
0
0
LINE
5
112
100
AcDbEntity
8
0
100
AcDbLine
10
121.20288068405117
20
-16.000000238418597
30
0
11
120.46296849311899
21
-21.285089634157941
31
0
0
LINE
5
113
100
AcDbEntity
8
0
100
AcDbLine
10
120.46296849311899
20
-21.285089634157941
30
0
11
120.4693041052783
21
-47.00000070035459
31
0
0
LINE
5
114
100
AcDbEntity
8
0
100
AcDbLine
10
122.49869513935808
20
-8.179610872830203
30
0
11
121.20288068405117
21
-16.000000238418597
31
0
0
SPLINE
5
115
100
AcDbEntity
8
0
100
AcDbSpline
70
4
71
5
72
61
73
55
74
0
42
0.000000001
43
0.0000000001
44
0.0000000001
40
0
40
0
40
0
40
0
40
0
40
0
40
0.02
40
0.040000000000000001
40
0.059999999999999998
40
0.080000000000000002
40
0.10000000000000001
40
0.12000000000000001
40
0.14000000000000001
40
0.16
40
0.17999999999999999
40
0.19999999999999998
40
0.21999999999999997
40
0.23999999999999996
40
0.25999999999999995
40
0.27999999999999997
40
0.29999999999999999
40
0.32000000000000001
40
0.34000000000000002
40
0.36000000000000004
40
0.38000000000000006
40
0.40000000000000008
40
0.4200000000000001
40
0.44000000000000011
40
0.46000000000000013
40
0.48000000000000015
40
0.50000000000000011
40
0.52000000000000013
40
0.54000000000000015
40
0.56000000000000016
40
0.58000000000000018
40
0.6000000000000002
40
0.62000000000000022
40
0.64000000000000024
40
0.66000000000000025
40
0.68000000000000027
40
0.70000000000000029
40
0.72000000000000031
40
0.74000000000000032
40
0.76000000000000034
40
0.78000000000000036
40
0.80000000000000038
40
0.8200000000000004
40
0.84000000000000041
40
0.86000000000000043
40
0.88000000000000045
40
0.90000000000000047
40
0.92000000000000048
40
0.9400000000000005
40
0.96000000000000052
40
0.98000000000000054
40
1
40
1
40
1
40
1
40
1
40
1
41
1
41
1
41
1
41
1
41
1
41
1
41
1
41
1
41
1
41
1
41
1
41
1
41
1
41
1
41
1
41
1
41
1
41
1
41
1
41
1
41
1
41
1
41
1
41
1
41
1
41
1
41
1
41
1
41
1
41
1
41
1
41
1
41
1
41
1
41
1
41
1
41
1
41
1
41
1
41
1
41
1
41
1
41
1
41
1
41
1
41
1
41
1
41
1
41
1
41
1
41
1
41
1
41
1
41
1
41
1
10
122.98452138036976
20
39.559624934285601
30
0
10
122.80955760234015
20
39.528613877157028
30
0
10
122.45771130416153
20
39.487803911792867
30
0
10
121.92419078651598
20
39.490244934277101
30
0
10
121.19786176646679
20
39.605943051655004
30
0
10
120.24876991258824
20
39.864741244080435
30
0
10
119.24315027527469
20
40.161728125993015
30
0
10
118.17757641911165
20
40.46122530993447
30
0
10
117.06186034637531
20
40.774124485389891
30
0
10
115.91249919571473
20
41.134508691064639
30
0
10
114.7487583008003
20
41.585936998051594
30
0
10
113.58686207454669
20
42.161282935756148
30
0
10
112.43783576677041
20
42.874040863397127
30
0
10
111.31028509513619
20
43.724844511668991
30
0
10
110.21216642912991
20
44.704635062232548
30
0
10
109.15270863562546
20
45.798905754416211
30
0
10
108.14487968159831
20
46.992032719834143
30
0
10
107.20523668243666
20
48.269325654180705
30
0
10
106.35097556676232
20
49.616385442354499
30
0
10
105.59775277350576
20
51.019205825565734
30
0
10
104.95716448564568
20
52.463964849035648
30
0
10
104.43441212376476
20
53.936958002031645
30
0
10
104.02572862460934
20
55.424442965184326
30
0
10
103.7207618875679
20
56.913406215352424
30
0
10
103.50507920303379
20
58.392339155575513
30
0
10
103.362671728443
20
59.852040558874229
30
0
10
103.2783150975729
20
61.286355050736603
30
0
10
103.24032899977574
20
62.693095604306698
30
0
10
103.24150819184558
20
64.074162012364127
30
0
10
103.27897201819061
20
65.435156822826087
30
0
10
103.35442475270276
20
66.785245253479502
30
0
10
103.47410520700387
20
68.13674855047536
30
0
10
103.64926633931609
20
69.505306945429624
30
0
10
103.89423464007331
20
70.907271431417129
30
0
10
104.22362625856202
20
72.356149713517098
30
0
10
104.64969951673964
20
73.859132618511566
30
0
10
105.17994985848708
20
75.414062679955961
30
0
10
105.81383297755652
20
77.00497622884113
30
0
10
106.54291235551001
20
78.603167203111198
30
0
10
107.35419660182555
20
80.173416758359252
30
0
10
108.23252671138701
20
81.678640151191232
30
0
10
109.16344589856008
20
83.085450534842508
30
0
10
110.13562044529996
20
84.36869644462692
30
0
10
111.1440521933356
20
85.518047291506917
30
0
10
112.19057088661351
20
86.537370581405497
30
0
10
113.28183286374276
20
87.437592468679867
30
0
10
114.42799991447984
20
88.231131535753292
30
0
10
115.64118794500564
20
88.926236290436776
30
0
10
116.93392634026254
20
89.520069735013138
30
0
10
118.31793376110768
20
89.996749028124839
30
0
10
119.80355976682878
20
90.334376417808812
30
0
10
121.07996519106379
20
90.474889051313966
30
0
10
122.08919680304483
20
90.499205880810905
30
0
10
122.78537254708107
20
90.478327784779182
30
0
10
123.13929909820956
20
90.458616535327906
30
0
0
SPLINE
5
116
100
AcDbEntity
8
0
100
AcDbSpline
70
4
71
5
72
61
73
55
74
0
42
0.000000001
43
0.0000000001
44
0.0000000001
40
0
40
0
40
0
40
0
40
0
40
0
40
0.02
40
0.040000000000000001
40
0.059999999999999998
40
0.080000000000000002
40
0.10000000000000001
40
0.12000000000000001
40
0.14000000000000001
40
0.16
40
0.17999999999999999
40
0.19999999999999998
40
0.21999999999999997
40
0.23999999999999996
40
0.25999999999999995
40
0.27999999999999997
40
0.29999999999999999
40
0.32000000000000001
40
0.34000000000000002
40
0.36000000000000004
40
0.38000000000000006
40
0.40000000000000008
40
0.4200000000000001
40
0.44000000000000011
40
0.46000000000000013
40
0.48000000000000015
40
0.50000000000000011
40
0.52000000000000013
40
0.54000000000000015
40
0.56000000000000016
40
0.58000000000000018
40
0.6000000000000002
40
0.62000000000000022
40
0.64000000000000024
40
0.66000000000000025
40
0.68000000000000027
40
0.70000000000000029
40
0.72000000000000031
40
0.74000000000000032
40
0.76000000000000034
40
0.78000000000000036
40
0.80000000000000038
40
0.8200000000000004
40
0.84000000000000041
40
0.86000000000000043
40
0.88000000000000045
40
0.90000000000000047
40
0.92000000000000048
40
0.9400000000000005
40
0.96000000000000052
40
0.98000000000000054
40
1
40
1
40
1
40
1
40
1
40
1
41
1
41
1
41
1
41
1
41
1
41
1
41
1
41
1
41
1
41
1
41
1
41
1
41
1
41
1
41
1
41
1
41
1
41
1
41
1
41
1
41
1
41
1
41
1
41
1
41
1
41
1
41
1
41
1
41
1
41
1
41
1
41
1
41
1
41
1
41
1
41
1
41
1
41
1
41
1
41
1
41
1
41
1
41
1
41
1
41
1
41
1
41
1
41
1
41
1
41
1
41
1
41
1
41
1
41
1
41
1
10
122.98452138036976
20
39.559624934285601
30
0
10
123.17207320032112
20
39.526382738280347
30
0
10
123.55048442856128
20
39.480345983364217
30
0
10
124.12802400422252
20
39.472647131327534
30
0
10
124.91789508480457
20
39.572068149605876
30
0
10
125.93780864390817
20
39.813507060019639
30
0
10
126.98920731253762
20
40.102001466002342
30
0
10
128.07010496618119
20
40.398152158616192
30
0
10
129.17739973356908
20
40.708228081979911
30
0
10
130.30673110507178
20
41.06239959935067
30
0
10
131.45232019337965
20
41.501790038018036
30
0
10
132.60680421276743
20
42.06068915200791
30
0
10
133.76109536864786
20
42.754891690665232
30
0
10
134.90440009677752
20
43.587235617558513
30
0
10
136.02417131657205
20
44.550693299270549
30
0
10
137.10616136474337
20
45.63221532926395
30
0
10
138.1342395176251
20
46.816617585423714
30
0
10
139.09094375604201
20
48.08913046841554
30
0
10
139.95947734653367
20
49.434950282285655
30
0
10
140.72536593992362
20
50.839458073214161
30
0
10
141.37832128154054
20
52.288156992985364
30
0
10
141.913882601475
20
53.766754971598132
30
0
10
142.33555858213185
20
55.261114674067244
30
0
10
142.6530870882732
20
56.757912246844988
30
0
10
142.88006175081304
20
58.245394742226551
30
0
10
143.03174556879645
20
59.714131932818937
30
0
10
143.12292375193937
20
61.157720895035794
30
0
10
143.16547290621224
20
62.573657050252002
30
0
10
143.16718213177271
20
63.963558193623655
30
0
10
143.13171577549576
20
65.332776913819345
30
0
10
143.05815855888585
20
66.690284748909917
30
0
10
142.94090708994213
20
68.048261096835162
30
0
10
142.76893606337401
20
69.42230365302899
30
0
10
142.5275991254189
20
70.829015868811382
30
0
10
142.20169192007825
20
72.282316189349672
30
0
10
141.77826794958685
20
73.789918603439176
30
0
10
141.24924440529259
20
75.350210419940595
30
0
10
140.61489205003267
20
76.947750764305738
30
0
10
139.88395864106874
20
78.553900172220224
30
0
10
139.07002418224002
20
80.133204724355636
30
0
10
138.18892465473749
20
81.648108373386364
30
0
10
137.25563381826274
20
83.064615003745104
30
0
10
136.28164969247609
20
84.356909710682615
30
0
10
135.27149017275696
20
85.514031397263096
30
0
10
134.22220359465967
20
86.539452109845996
30
0
10
133.12578781253472
20
87.443889975712906
30
0
10
131.97084244304881
20
88.239733051772916
30
0
10
130.74444991222197
20
88.935362777953614
30
0
10
129.43413556136147
20
89.52820170346979
30
0
10
128.02916458277176
20
90.002865258049027
30
0
10
126.52061805169025
20
90.338060766031305
30
0
10
125.22553325816217
20
90.476767752225498
30
0
10
124.20264962800546
20
90.50001290536359
30
0
10
123.49760327671936
20
90.478571588204048
30
0
10
123.13929909820956
20
90.458616535327906
30
0
0
LINE
5
117
100
AcDbEntity
8
0
100
AcDbLine
10
105.05875071871796
20
75.017733729011937
30
0
11
104.68445714869127
21
53.276065694147675
31
0
0
LINE
5
118
100
AcDbEntity
8
0
100
AcDbLine
10
106.6835953300241
20
78.840849430398009
30
0
11
106.32587772241322
21
49.716914727841512
31
0
0
LINE
5
119
100
AcDbEntity
8
0
100
AcDbLine
10
108.35110605724033
20
81.822441007620881
30
0
11
107.95191586038541
21
47.283671398225309
31
0
0
LINE
5
120
100
AcDbEntity
8
0
100
AcDbLine
10
109.98787236876574
20
84.140450456772115
30
0
11
109.68288699894771
21
45.270469751761766
31
0
0
LINE
5
121
100
AcDbEntity
8
0
100
AcDbLine
10
111.77734337520818
20
86.113538406313268
30
0
11
111.77734337520818
21
43.392053631138332
31
0
0
LINE
5
122
100
AcDbEntity
8
0
100
AcDbLine
10
113.56682413555235
20
87.611941667937359
30
0
11
113.56682413555235
21
42.208529890778763
31
0
0
LINE
5
123
100
AcDbEntity
8
0
100
AcDbLine
10
115.2028805946442
20
88.655882521678237
30
0
11
115.2028805946442
21
41.424422706998584
31
0
0
LINE
5
124
100
AcDbEntity
8
0
100
AcDbLine
10
116.77263369239054
20
89.415908766178532
30
0
11
117.13072824151971
21
40.76294851345196
31
0
0
LINE
5
125
100
AcDbEntity
8
0
100
AcDbLine
10
118.68495170407192
20
40.317746699017498
30
0
11
118.68495170407192
21
90.053696025177388
31
0
0
LINE
5
126
100
AcDbEntity
8
0
100
AcDbLine
10
120.32045832184458
20
90.615606378359374
30
0
11
120.32045832184458
21
39.850799628798768
31
0
0
LINE
5
127
100
AcDbEntity
8
0
100
AcDbLine
10
122.14634027334813
20
39.505697509391624
30
0
11
122.14634027334813
21
90.513917441770985
31
0
0
LINE
5
128
100
AcDbEntity
8
0
100
AcDbLine
10
123.92580161713809
20
39.49284897309461
30
0
11
123.92580161713809
21
90.484761893179069
31
0
0
LINE
5
129
100
AcDbEntity
8
0
100
AcDbLine
10
125.47946999991743
20
90.424592447999999
30
0
11
125.47946999991748
21
39.713735579256621
31
0
0
LINE
5
130
100
AcDbEntity
8
0
100
AcDbLine
10
127.41370159933462
20
40.21858631111953
30
0
11
127.20941748184642
21
90.16293769370813
31
0
0
LINE
5
131
100
AcDbEntity
8
0
100
AcDbLine
10
129.18346719445321
20
89.585378948789895
30
0
11
129.18346719445327
21
40.719514160032645
31
0
0
LINE
5
132
100
AcDbEntity
8
0
100
AcDbLine
10
130.91574233736259
20
41.308449816295393
30
0
11
130.72103756138134
21
88.910798285888205
31
0
0
LINE
5
133
100
AcDbEntity
8
0
100
AcDbLine
10
132.34829589545009
20
87.958930778184836
30
0
11
132.65099621582624
21
42.11857173603272
31
0
0
LINE
5
134
100
AcDbEntity
8
0
100
AcDbLine
10
134.44274590901958
20
43.27029550570235
30
0
11
134.15690739459512
21
86.557134822591166
31
0
0
LINE
5
135
100
AcDbEntity
8
0
100
AcDbLine
10
136.07273420053576
20
84.566247747081889
30
0
11
136.33477021084505
21
44.884014244245478
31
0
0
LINE
5
136
100
AcDbEntity
8
0
100
AcDbLine
10
138.31974569765217
20
47.094248619804411
30
0
11
137.60708282366869
21
82.507026684664666
31
0
0
LINE
5
137
100
AcDbEntity
8
0
100
AcDbLine
10
139.55844923962775
20
79.160533150900761
30
0
11
139.96079971204986
21
49.495114710944904
31
0
0
LINE
5
138
100
AcDbEntity
8
0
100
AcDbLine
10
141.74796715651209
20
53.35872160138549
30
0
11
141.14696176393437
21
75.56358850010939
31
0
0
LINE
5
139
100
AcDbEntity
8
0
100
AcDbLine
10
112.6046217257924
20
86.858347679543485
30
0
11
133.71863240933357
21
86.934851072014524
31
0
0
LINE
5
140
100
AcDbEntity
8
0
100
AcDbLine
10
135.76432913527196
20
84.927418528917528
30
0
11
110.64495626929957
21
84.927418528917514
31
0
0
LINE
5
141
100
AcDbEntity
8
0
100
AcDbLine
10
109.03557783049257
20
82.857440163526235
30
0
11
137.29722944105384
21
82.959841941068575
31
0
0
LINE
5
142
100
AcDbEntity
8
0
100
AcDbLine
10
138.54542430041872
20
81.011321065704863
30
0
11
107.78314799398031
21
80.885496136694371
31
0
0
LINE
5
143
100
AcDbEntity
8
0
100
AcDbLine
10
106.6835953300241
20
78.840849430398009
30
0
11
139.55844923962775
21
79.160533150900761
31
0
0
LINE
5
144
100
AcDbEntity
8
0
100
AcDbLine
10
140.57488798951829
20
76.98708368487523
30
0
11
105.76879881097202
21
76.84471861226497
31
0
0
LINE
5
145
100
AcDbEntity
8
0
100
AcDbLine
10
105.05875071871796
20
75.017733729011937
30
0
11
141.29361038892387
21
75.165942808219597
31
0
0
LINE
5
146
100
AcDbEntity
8
0
100
AcDbLine
10
141.94475700143832
20
73.157261829428379
30
0
11
104.41799624872041
21
73.003768571625614
31
0
0
LINE
5
147
100
AcDbEntity
8
0
100
AcDbLine
10
103.94608349834272
20
71.069084166557289
30
0
11
142.42692934702748
21
71.226479856295654
31
0
0
LINE
5
148
100
AcDbEntity
8
0
100
AcDbLine
10
142.77769631373917
20
69.252163209135148
30
0
11
103.61828961135342
21
69.183877030675887
31
0
0
LINE
5
149
100
AcDbEntity
8
0
100
AcDbLine
10
103.39591058164555
20
67.177224665427076
30
0
11
143.00406978096032
21
67.246293378548387
31
0
0
LINE
5
150
100
AcDbEntity
8
0
100
AcDbLine
10
143.12017127757133
20
65.378624657130388
30
0
11
103.27992834912229
21
65.215668714328999
31
0
0
LINE
5
151
100
AcDbEntity
8
0
100
AcDbLine
10
103.24565697821157
20
63.309598629436287
30
0
11
143.16149583322044
21
63.409526255546524
31
0
0
LINE
5
152
100
AcDbEntity
8
0
100
AcDbLine
10
143.12102287576971
20
61.381293261392642
30
0
11
103.28985426319534
21
61.281577603678201
31
0
0
LINE
5
153
100
AcDbEntity
8
0
100
AcDbLine
10
103.42705831785474
20
59.273470844242333
30
0
11
143.00037326664443
21
59.52097945596315
31
0
0
LINE
5
154
100
AcDbEntity
8
0
100
AcDbLine
10
142.75538671912338
20
57.494594123372742
30
0
11
103.66197602918544
21
57.396725411631834
31
0
0
LINE
5
155
100
AcDbEntity
8
0
100
AcDbLine
10
104.05240361186301
20
55.421585361188015
30
0
11
142.37146206934989
21
55.517515514637736
31
0
0
LINE
5
156
100
AcDbEntity
8
0
100
AcDbLine
10
141.74796715651209
20
53.35872160138549
30
0
11
104.68445714869127
21
53.276065694147675
31
0
0
LINE
5
157
100
AcDbEntity
8
0
100
AcDbLine
10
105.38694154048402
20
51.534757842664007
30
0
11
141.06105433902329
21
51.620963600603943
31
0
0
LINE
5
158
100
AcDbEntity
8
0
100
AcDbLine
10
139.96079971204986
20
49.495114710944904
30
0
11
106.5040817639387
21
49.414267241936017
31
0
0
LINE
5
159
100
AcDbEntity
8
0
100
AcDbLine
10
108.15151095881288
20
47.026311316240665
30
0
11
138.31974569765217
21
47.094248619804411
31
0
0
LWPOLYLINE
5
160
100
AcDbEntity
8
0
100
AcDbPolyline
90
4
70
1
43
0.0
10
103.09318014934632
20
-24.500139669796553
10
102.90682292029288
20
-47.499861403087131
10
108.24135497910591
20
-47.543084909193169
10
108.42771220815935
20
-24.543363175902591
0
SPLINE
5
161
100
AcDbEntity
8
0
100
AcDbSpline
70
0
71
2
72
6
73
3
74
0
42
0.000000001
43
0.0000000001
44
0.0000000001
40
0
40
0
40
0
40
1
40
1
40
1
10
108.29529491935583
20
-28.929233363855001
30
0
10
108.17606540368203
20
-28.928267296420795
30
0
10
107.95321010377101
20
-28.686744703923587
30
0
0
SPLINE
5
162
100
AcDbEntity
8
0
100
AcDbSpline
70
0
71
2
72
6
73
3
74
0
42
0.000000001
43
0.0000000001
44
0.0000000001
40
0
40
0
40
0
40
1
40
1
40
1
10
107.95321010377101
20
-28.686744703923587
30
0
10
107.73035480386
20
-28.445222111426382
30
0
10
107.52698459190651
20
-28.09828248430555
30
0
0
SPLINE
5
163
100
AcDbEntity
8
0
100
AcDbSpline
70
0
71
2
72
6
73
3
74
0
42
0.000000001
43
0.0000000001
44
0.0000000001
40
0
40
0
40
0
40
1
40
1
40
1
10
107.52698459190651
20
-28.09828248430555
30
0
10
107.38576187230372
20
-28.052424323057544
30
0
10
107.0138737998861
20
-27.962467090988696
30
0
0
SPLINE
5
164
100
AcDbEntity
8
0
100
AcDbSpline
70
0
71
2
72
6
73
3
74
0
42
0.000000001
43
0.0000000001
44
0.0000000001
40
0
40
0
40
0
40
1
40
1
40
1
10
107.0138737998861
20
-27.962467090988696
30
0
10
106.43127271194743
20
-27.818636331225328
30
0
10
106.18754962000095
20
-27.699908007610496
30
0
0
SPLINE
5
165
100
AcDbEntity
8
0
100
AcDbSpline
70
0
71
2
72
6
73
3
74
0
42
0.000000001
43
0.0000000001
44
0.0000000001
40
0
40
0
40
0
40
1
40
1
40
1
10
106.18754962000095
20
-27.699908007610496
30
0
10
105.94382652563979
20
-27.581179982009104
30
0
10
105.69263719519449
20
-27.310860750835889
30
0
0
SPLINE
5
166
100
AcDbEntity
8
0
100
AcDbSpline
70
0
71
2
72
6
73
3
74
0
42
0.000000001
43
0.0000000001
44
0.0000000001
40
0
40
0
40
0
40
1
40
1
40
1
10
105.69263719519449
20
-27.310860750835889
30
0
10
104.9661516532552
20
-26.529930862420681
30
0
10
104.97394057541459
20
-25.568642463906372
30
0
0
SPLINE
5
167
100
AcDbEntity
8
0
100
AcDbSpline
70
0
71
2
72
6
73
3
74
0
42
0.000000001
43
0.0000000001
44
0.0000000001
40
0
40
0
40
0
40
1
40
1
40
1
10
104.97394057541459
20
-25.568642463906372
30
0
10
104.97617460680894
20
-25.292924153033201
30
0
10
105.0697915062777
20
-25.082533012593281
30
0
0
SPLINE
5
168
100
AcDbEntity
8
0
100
AcDbSpline
70
0
71
2
72
6
73
3
74
0
42
0.000000001
43
0.0000000001
44
0.0000000001
40
0
40
0
40
0
40
1
40
1
40
1
10
105.0697915062777
20
-25.082533012593281
30
0
10
104.8418649123947
20
-24.96393297949945
30
0
10
104.67272321150443
20
-24.962562494279638
30
0
0
SPLINE
5
169
100
AcDbEntity
8
0
100
AcDbSpline
70
0
71
2
72
6
73
3
74
0
42
0.000000001
43
0.0000000001
44
0.0000000001
40
0
40
0
40
0
40
1
40
1
40
1
10
104.67272321150443
20
-24.962562494279638
30
0
10
104.45875432874934
20
-24.960828792952459
30
0
10
104.27848085017064
20
-25.102204453408412
30
0
0
SPLINE
5
170
100
AcDbEntity
8
0
100
AcDbSpline
70
0
71
2
72
6
73
3
74
0
42
0.000000001
43
0.0000000001
44
0.0000000001
40
0
40
0
40
0
40
1
40
1
40
1
10
104.27848085017064
20
-25.102204453408412
30
0
10
104.26345643862832
20
-25.116987496495234
30
0
10
104.24354616060421
20
-25.116826171750297
30
0
0
SPLINE
5
171
100
AcDbEntity
8
0
100
AcDbSpline
70
0
71
2
72
6
73
3
74
0
42
0.000000001
43
0.0000000001
44
0.0000000001
40
0
40
0
40
0
40
1
40
1
40
1
10
104.24354616060421
20
-25.116826171750297
30
0
10
104.22367462432749
20
-25.116665160913708
30
0
10
104.22387588908055
20
-25.091825591561083
30
0
0
SPLINE
5
172
100
AcDbEntity
8
0
100
AcDbSpline
70
0
71
2
72
6
73
3
74
0
42
0.000000001
43
0.0000000001
44
0.0000000001
40
0
40
0
40
0
40
1
40
1
40
1
10
104.22387588908055
20
-25.091825591561083
30
0
10
104.22434194095962
20
-25.034306687754629
30
0
10
104.37909712999098
20
-24.969304663796517
30
0
0
SPLINE
5
173
100
AcDbEntity
8
0
100
AcDbSpline
70
0
71
2
72
6
73
3
74
0
42
0.000000001
43
0.0000000001
44
0.0000000001
40
0
40
0
40
0
40
1
40
1
40
1
10
104.37909712999098
20
-24.969304663796517
30
0
10
104.53385231902232
20
-24.904302639838399
30
0
10
104.66817949365405
20
-24.905391037356477
30
0
0
SPLINE
5
174
100
AcDbEntity
8
0
100
AcDbSpline
70
0
71
2
72
6
73
3
74
0
42
0.000000001
43
0.0000000001
44
0.0000000001
40
0
40
0
40
0
40
1
40
1
40
1
10
104.66817949365405
20
-24.905391037356477
30
0
10
104.86219935663762
20
-24.906963100030374
30
0
10
105.09501332856783
20
-25.03553922847507
30
0
0
SPLINE
5
175
100
AcDbEntity
8
0
100
AcDbSpline
70
0
71
2
72
6
73
3
74
0
42
0.000000001
43
0.0000000001
44
0.0000000001
40
0
40
0
40
0
40
1
40
1
40
1
10
105.09501332856783
20
-25.03553922847507
30
0
10
105.36748638312687
20
-24.518567432213018
30
0
10
106.02076522431832
20
-24.523860680368593
30
0
0
SPLINE
5
176
100
AcDbEntity
8
0
100
AcDbSpline
70
0
71
2
72
6
73
3
74
0
42
0.000000001
43
0.0000000001
44
0.0000000001
40
0
40
0
40
0
40
1
40
1
40
1
10
106.02076522431832
20
-24.523860680368593
30
0
10
106.44055262021793
20
-24.527262043950223
30
0
10
106.8533594905543
20
-24.779018103315387
30
0
0
SPLINE
5
177
100
AcDbEntity
8
0
100
AcDbSpline
70
0
71
2
72
6
73
3
74
0
42
0.000000001
43
0.0000000001
44
0.0000000001
40
0
40
0
40
0
40
1
40
1
40
1
10
106.8533594905543
20
-24.779018103315387
30
0
10
107.266166360287
20
-25.030774237183913
30
0
10
107.59537290393206
20
-25.483066027676884
30
0
0
SPLINE
5
178
100
AcDbEntity
8
0
100
AcDbSpline
70
0
71
2
72
6
73
3
74
0
42
0.000000001
43
0.0000000001
44
0.0000000001
40
0
40
0
40
0
40
1
40
1
40
1
10
107.59537290393206
20
-25.483066027676884
30
0
10
108.01299504067904
20
-26.060279766677475
30
0
10
108.00844647005735
20
-26.621652454575631
30
0
0
SPLINE
5
179
100
AcDbEntity
8
0
100
AcDbSpline
70
0
71
2
72
6
73
3
74
0
42
0.000000001
43
0.0000000001
44
0.0000000001
40
0
40
0
40
0
40
1
40
1
40
1
10
108.00844647005735
20
-26.621652454575631
30
0
10
108.00597092120078
20
-26.927178218870615
30
0
10
107.83311915804387
20
-27.10587603811712
30
0
0
SPLINE
5
180
100
AcDbEntity
8
0
100
AcDbSpline
70
0
71
2
72
6
73
3
74
0
42
0.000000001
43
0.0000000001
44
0.0000000001
40
0
40
0
40
0
40
1
40
1
40
1
10
107.83311915804387
20
-27.10587603811712
30
0
10
107.66026739730162
20
-27.284573559350179
30
0
10
107.36716134317959
20
-27.282198642266472
30
0
0
SPLINE
5
181
100
AcDbEntity
8
0
100
AcDbSpline
70
0
71
2
72
6
73
3
74
0
42
0.000000001
43
0.0000000001
44
0.0000000001
40
0
40
0
40
0
40
1
40
1
40
1
10
107.36716134317959
20
-27.282198642266472
30
0
10
107.21067269698693
20
-27.280930679513666
30
0
10
107.04212631699021
20
-27.234851125950676
30
0
0
SPLINE
5
182
100
AcDbEntity
8
0
100
AcDbSpline
70
0
71
2
72
6
73
3
74
0
42
0.000000001
43
0.0000000001
44
0.0000000001
40
0
40
0
40
0
40
1
40
1
40
1
10
107.04212631699021
20
-27.234851125950676
30
0
10
107.28259465104063
20
-27.601963886653401
30
0
10
107.44922902010885
20
-27.884018827542828
30
0
0
SPLINE
5
183
100
AcDbEntity
8
0
100
AcDbSpline
70
0
71
2
72
6
73
3
74
0
42
0.000000001
43
0.0000000001
44
0.0000000001
40
0
40
0
40
0
40
1
40
1
40
1
10
107.44922902010885
20
-27.884018827542828
30
0
10
107.8377600092347
20
-28.066023097386999
30
0
10
108.11625257329123
20
-28.339047958508552
30
0
0
SPLINE
5
184
100
AcDbEntity
8
0
100
AcDbSpline
70
0
71
2
72
6
73
3
74
0
42
0.000000001
43
0.0000000001
44
0.0000000001
40
0
40
0
40
0
40
1
40
1
40
1
10
108.11625257329123
20
-28.339047958508552
30
0
10
108.39474513734777
20
-28.612072819630107
30
0
10
108.39311489779796
20
-28.813272720458837
30
0
0
SPLINE
5
185
100
AcDbEntity
8
0
100
AcDbSpline
70
0
71
2
72
6
73
3
74
0
42
0.000000001
43
0.0000000001
44
0.0000000001
40
0
40
0
40
0
40
1
40
1
40
1
10
108.39311489779796
20
-28.813272720458837
30
0
10
108.39216895671832
20
-28.930018294098044
30
0
10
108.29529491935583
20
-28.929233363855001
30
0
0
SPLINE
5
186
100
AcDbEntity
8
0
100
AcDbSpline
70
0
71
2
72
6
73
3
74
0
42
0.000000001
43
0.0000000001
44
0.0000000001
40
0
40
0
40
0
40
1
40
1
40
1
10
108.29070943843823
20
-28.881997914475189
30
0
10
108.35032434528186
20
-28.882480949399628
30
0
10
108.35088788320991
20
-28.812930572431089
30
0
0
SPLINE
5
187
100
AcDbEntity
8
0
100
AcDbSpline
70
0
71
2
72
6
73
3
74
0
42
0.000000001
43
0.0000000001
44
0.0000000001
40
0
40
0
40
0
40
1
40
1
40
1
10
108.35088788320991
20
-28.812930572431089
30
0
10
108.35223635379569
20
-28.646505860086627
30
0
10
108.12413140085147
20
-28.439718203364546
30
0
0
SPLINE
5
188
100
AcDbEntity
8
0
100
AcDbSpline
70
0
71
2
72
6
73
3
74
0
42
0.000000001
43
0.0000000001
44
0.0000000001
40
0
40
0
40
0
40
1
40
1
40
1
10
108.12413140085147
20
-28.439718203364546
30
0
10
107.89602644549254
20
-28.2329308446559
30
0
10
107.58892242753346
20
-28.118657479874727
30
0
0
SPLINE
5
189
100
AcDbEntity
8
0
100
AcDbSpline
70
0
71
2
72
6
73
3
74
0
42
0.000000001
43
0.0000000001
44
0.0000000001
40
0
40
0
40
0
40
1
40
1
40
1
10
107.58892242753346
20
-28.118657479874727
30
0
10
107.78746564231443
20
-28.448168962030842
30
0
10
107.98692460743588
20
-28.664660932606353
30
0
0
SPLINE
5
190
100
AcDbEntity
8
0
100
AcDbSpline
70
0
71
2
72
6
73
3
74
0
42
0.000000001
43
0.0000000001
44
0.0000000001
40
0
40
0
40
0
40
1
40
1
40
1
10
107.98692460743588
20
-28.664660932606353
30
0
10
108.18638357497198
20
-28.881152605168424
30
0
10
108.29070943843823
20
-28.881997914475189
30
0
0
LINE
5
191
100
AcDbEntity
8
0
100
AcDbLine
10
106.93105305224492
20
-27.147007168356076
30
0
11
106.8206037069061
21
-26.982160709675718
31
0
0
SPLINE
5
192
100
AcDbEntity
8
0
100
AcDbSpline
70
0
71
2
72
6
73
3
74
0
42
0.000000001
43
0.0000000001
44
0.0000000001
40
0
40
0
40
0
40
1
40
1
40
1
10
106.8206037069061
20
-26.982160709675718
30
0
10
106.18236435163944
20
-26.040478713408742
30
0
10
105.75600229847396
20
-25.622177332578396
30
0
0
SPLINE
5
193
100
AcDbEntity
8
0
100
AcDbSpline
70
0
71
2
72
6
73
3
74
0
42
0.000000001
43
0.0000000001
44
0.0000000001
40
0
40
0
40
0
40
1
40
1
40
1
10
105.75600229847396
20
-25.622177332578396
30
0
10
105.70050996639276
20
-25.726060413829352
30
0
10
105.69954389895855
20
-25.845289929503149
30
0
0
SPLINE
5
194
100
AcDbEntity
8
0
100
AcDbSpline
70
0
71
2
72
6
73
3
74
0
42
0.000000001
43
0.0000000001
44
0.0000000001
40
0
40
0
40
0
40
1
40
1
40
1
10
105.69954389895855
20
-25.845289929503149
30
0
10
105.69672619965955
20
-26.19304300639962
30
0
10
106.0587875288897
20
-26.57604591352678
30
0
0
SPLINE
5
195
100
AcDbEntity
8
0
100
AcDbSpline
70
0
71
2
72
6
73
3
74
0
42
0.000000001
43
0.0000000001
44
0.0000000001
40
0
40
0
40
0
40
1
40
1
40
1
10
106.0587875288897
20
-26.57604591352678
30
0
10
106.42084885811983
20
-26.959048820653948
30
0
10
106.93105305224492
20
-27.147007168356076
30
0
0
SPLINE
5
196
100
AcDbEntity
8
0
100
AcDbSpline
70
0
71
2
72
6
73
3
74
0
42
0.000000001
43
0.0000000001
44
0.0000000001
40
0
40
0
40
0
40
1
40
1
40
1
10
107.38240410142978
20
-27.853668111554256
30
0
10
107.20094658557231
20
-27.561556644399023
30
0
10
106.97025271322489
20
-27.214395624963199
30
0
0
SPLINE
5
197
100
AcDbEntity
8
0
100
AcDbSpline
70
0
71
2
72
6
73
3
74
0
42
0.000000001
43
0.0000000001
44
0.0000000001
40
0
40
0
40
0
40
1
40
1
40
1
10
106.97025271322489
20
-27.214395624963199
30
0
10
106.44498385364099
20
-27.046188353423801
30
0
10
106.05088285860066
20
-26.631874379248075
30
0
0
SPLINE
5
198
100
AcDbEntity
8
0
100
AcDbSpline
70
0
71
2
72
6
73
3
74
0
42
0.000000001
43
0.0000000001
44
0.0000000001
40
0
40
0
40
0
40
1
40
1
40
1
10
106.05088285860066
20
-26.631874379248075
30
0
10
105.65678186356037
20
-26.217560405072348
30
0
10
105.65984107911424
20
-25.840000023760794
30
0
0
SPLINE
5
199
100
AcDbEntity
8
0
100
AcDbSpline
70
0
71
2
72
6
73
3
74
0
42
0.000000001
43
0.0000000001
44
0.0000000001
40
0
40
0
40
0
40
1
40
1
40
1
10
105.65984107911424
20
-25.840000023760794
30
0
10
105.66076689383931
20
-25.725738392156178
30
0
10
105.72148875259914
20
-25.589604317164685
30
0
0
SPLINE
5
200
100
AcDbEntity
8
0
100
AcDbSpline
70
0
71
2
72
6
73
3
74
0
42
0.000000001
43
0.0000000001
44
0.0000000001
40
0
40
0
40
0
40
1
40
1
40
1
10
105.72148875259914
20
-25.589604317164685
30
0
10
105.43314092582256
20
-25.306563182486478
30
0
10
105.11430119814725
20
-25.107734856328232
30
0
0
SPLINE
5
201
100
AcDbEntity
8
0
100
AcDbSpline
70
0
71
2
72
6
73
3
74
0
42
0.000000001
43
0.0000000001
44
0.0000000001
40
0
40
0
40
0
40
1
40
1
40
1
10
105.11430119814725
20
-25.107734856328232
30
0
10
105.02074467894957
20
-25.310674021657658
30
0
10
105.01865153203723
20
-25.569004738288697
30
0
0
SPLINE
5
202
100
AcDbEntity
8
0
100
AcDbSpline
70
0
71
2
72
6
73
3
74
0
42
0.000000001
43
0.0000000001
44
0.0000000001
40
0
40
0
40
0
40
1
40
1
40
1
10
105.01865153203723
20
-25.569004738288697
30
0
10
105.01486776651134
20
-26.035987181852242
30
0
10
105.27586638576396
20
-26.475305935220867
30
0
0
SPLINE
5
203
100
AcDbEntity
8
0
100
AcDbSpline
70
0
71
2
72
6
73
3
74
0
42
0.000000001
43
0.0000000001
44
0.0000000001
40
0
40
0
40
0
40
1
40
1
40
1
10
105.27586638576396
20
-26.475305935220867
30
0
10
105.53686470941784
20
-26.914624388161378
30
0
10
106.00379531368772
20
-27.231406169661359
30
0
0
SPLINE
5
204
100
AcDbEntity
8
0
100
AcDbSpline
70
0
71
2
72
6
73
3
74
0
42
0.000000001
43
0.0000000001
44
0.0000000001
40
0
40
0
40
0
40
1
40
1
40
1
10
106.00379531368772
20
-27.231406169661359
30
0
10
106.22119535142406
20
-27.379730171747475
30
0
10
106.40804912358564
20
-27.465704042329318
30
0
0
SPLINE
5
205
100
AcDbEntity
8
0
100
AcDbSpline
70
0
71
2
72
6
73
3
74
0
42
0.000000001
43
0.0000000001
44
0.0000000001
40
0
40
0
40
0
40
1
40
1
40
1
10
106.40804912358564
20
-27.465704042329318
30
0
10
106.59490319376067
20
-27.55167791532584
30
0
10
107.1125189612804
20
-27.744664526160872
30
0
0
SPLINE
5
206
100
AcDbEntity
8
0
100
AcDbSpline
70
0
71
2
72
6
73
3
74
0
42
0.000000001
43
0.0000000001
44
0.0000000001
40
0
40
0
40
0
40
1
40
1
40
1
10
107.1125189612804
20
-27.744664526160872
30
0
10
107.24132197071023
20
-27.790422055636004
30
0
10
107.38240410142978
20
-27.853668111554256
30
0
0
SPLINE
5
207
100
AcDbEntity
8
0
100
AcDbSpline
70
0
71
2
72
6
73
3
74
0
42
0.000000001
43
0.0000000001
44
0.0000000001
40
0
40
0
40
0
40
1
40
1
40
1
10
107.37745938570028
20
-27.237568191062135
30
0
10
107.63827419337262
20
-27.239681465536385
30
0
10
107.79858548822915
20
-27.075786666724561
30
0
0
SPLINE
5
208
100
AcDbEntity
8
0
100
AcDbSpline
70
0
71
2
72
6
73
3
74
0
42
0.000000001
43
0.0000000001
44
0.0000000001
40
0
40
0
40
0
40
1
40
1
40
1
10
107.79858548822915
20
-27.075786666724561
30
0
10
107.95889648265755
20
-26.911892163511499
30
0
10
107.9610902625501
20
-26.641141587700787
30
0
0
SPLINE
5
209
100
AcDbEntity
8
0
100
AcDbSpline
70
0
71
2
72
6
73
3
74
0
42
0.000000001
43
0.0000000001
44
0.0000000001
40
0
40
0
40
0
40
1
40
1
40
1
10
107.9610902625501
20
-26.641141587700787
30
0
10
107.96650426883312
20
-25.972959094301785
30
0
10
107.27606020571696
20
-25.342610488338238
30
0
0
SPLINE
5
210
100
AcDbEntity
8
0
100
AcDbSpline
70
0
71
2
72
6
73
3
74
0
42
0.000000001
43
0.0000000001
44
0.0000000001
40
0
40
0
40
0
40
1
40
1
40
1
10
107.27606020571696
20
-25.342610488338238
30
0
10
106.5856161438081
20
-24.712261733367974
30
0
10
105.84043144733678
20
-24.706223810093178
30
0
0
SPLINE
5
211
100
AcDbEntity
8
0
100
AcDbSpline
70
0
71
2
72
6
73
3
74
0
42
0.000000001
43
0.0000000001
44
0.0000000001
40
0
40
0
40
0
40
1
40
1
40
1
10
105.84043144733678
20
-24.706223810093178
30
0
10
105.35109337645521
20
-24.702258906168812
30
0
10
105.14200726108909
20
-25.060761126475914
30
0
0
SPLINE
5
212
100
AcDbEntity
8
0
100
AcDbSpline
70
0
71
2
72
6
73
3
74
0
42
0.000000001
43
0.0000000001
44
0.0000000001
40
0
40
0
40
0
40
1
40
1
40
1
10
105.14200726108909
20
-25.060761126475914
30
0
10
105.41884076865345
20
-25.231923862893197
30
0
10
105.74665019703291
20
-25.55006221014353
30
0
0
SPLINE
5
213
100
AcDbEntity
8
0
100
AcDbSpline
70
0
71
2
72
6
73
3
74
0
42
0.000000001
43
0.0000000001
44
0.0000000001
40
0
40
0
40
0
40
1
40
1
40
1
10
105.74665019703291
20
-25.55006221014353
30
0
10
105.88956353404188
20
-25.387268793465747
30
0
10
106.08579555080144
20
-25.388858780306411
30
0
0
SPLINE
5
214
100
AcDbEntity
8
0
100
AcDbSpline
70
0
71
2
72
6
73
3
74
0
42
0.000000001
43
0.0000000001
44
0.0000000001
40
0
40
0
40
0
40
1
40
1
40
1
10
106.08579555080144
20
-25.388858780306411
30
0
10
106.23483266890376
20
-25.390066366410178
30
0
10
106.33963555049213
20
-25.485311833014777
30
0
0
SPLINE
5
215
100
AcDbEntity
8
0
100
AcDbSpline
70
0
71
2
72
6
73
3
74
0
42
0.000000001
43
0.0000000001
44
0.0000000001
40
0
40
0
40
0
40
1
40
1
40
1
10
106.33963555049213
20
-25.485311833014777
30
0
10
106.44443873009392
20
-25.580557302034059
30
0
10
106.44335190332492
20
-25.714690618922123
30
0
0
SPLINE
5
216
100
AcDbEntity
8
0
100
AcDbSpline
70
0
71
2
72
6
73
3
74
0
42
0.000000001
43
0.0000000001
44
0.0000000001
40
0
40
0
40
0
40
1
40
1
40
1
10
106.44335190332492
20
-25.714690618922123
30
0
10
106.44200343273916
20
-25.881115331266585
30
0
10
106.28799843056765
20
-25.87986749245367
30
0
0
SPLINE
5
217
100
AcDbEntity
8
0
100
AcDbSpline
70
0
71
2
72
6
73
3
74
0
42
0.000000001
43
0.0000000001
44
0.0000000001
40
0
40
0
40
0
40
1
40
1
40
1
10
106.28799843056765
20
-25.87986749245367
30
0
10
106.20851228546074
20
-25.879223449107318
30
0
10
106.15064265992015
20
-25.816651629689289
30
0
0
SPLINE
5
218
100
AcDbEntity
8
0
100
AcDbSpline
70
0
71
2
72
6
73
3
74
0
42
0.000000001
43
0.0000000001
44
0.0000000001
40
0
40
0
40
0
40
1
40
1
40
1
10
106.15064265992015
20
-25.816651629689289
30
0
10
106.09277273636613
20
-25.754079807856588
30
0
10
106.09345703362897
20
-25.669625629673781
30
0
0
SPLINE
5
219
100
AcDbEntity
8
0
100
AcDbSpline
70
0
71
2
72
6
73
3
74
0
42
0.000000001
43
0.0000000001
44
0.0000000001
40
0
40
0
40
0
40
1
40
1
40
1
10
106.09345703362897
20
-25.669625629673781
30
0
10
106.09444322862508
20
-25.547912022958673
30
0
10
106.21118910027774
20
-25.548857966452985
30
0
0
SPLINE
5
220
100
AcDbEntity
8
0
100
AcDbSpline
70
0
71
2
72
6
73
3
74
0
42
0.000000001
43
0.0000000001
44
0.0000000001
40
0
40
0
40
0
40
1
40
1
40
1
10
106.21118910027774
20
-25.548857966452985
30
0
10
106.24844823079658
20
-25.549159861771589
30
0
10
106.29047398063156
20
-25.574341579151962
30
0
0
SPLINE
5
221
100
AcDbEntity
8
0
100
AcDbSpline
70
0
71
2
72
6
73
3
74
0
42
0.000000001
43
0.0000000001
44
0.0000000001
40
0
40
0
40
0
40
1
40
1
40
1
10
106.29047398063156
20
-25.574341579151962
30
0
10
106.32268501967638
20
-25.584538992314464
30
0
10
106.32765290374557
20
-25.584579245023605
30
0
0
SPLINE
5
222
100
AcDbEntity
8
0
100
AcDbSpline
70
0
71
2
72
6
73
3
74
0
42
0.000000001
43
0.0000000001
44
0.0000000001
40
0
40
0
40
0
40
1
40
1
40
1
10
106.32765290374557
20
-25.584579245023605
30
0
10
106.34255655595311
20
-25.584700003151049
30
0
10
106.34267731408056
20
-25.569796350943506
30
0
0
SPLINE
5
223
100
AcDbEntity
8
0
100
AcDbSpline
70
0
71
2
72
6
73
3
74
0
42
0.000000001
43
0.0000000001
44
0.0000000001
40
0
40
0
40
0
40
1
40
1
40
1
10
106.34267731408056
20
-25.569796350943506
30
0
10
106.34301946331564
20
-25.527569187348739
30
0
10
106.2539595276466
20
-25.482133530540061
30
0
0
SPLINE
5
224
100
AcDbEntity
8
0
100
AcDbSpline
70
0
71
2
72
6
73
3
74
0
42
0.000000001
43
0.0000000001
44
0.0000000001
40
0
40
0
40
0
40
1
40
1
40
1
10
106.2539595276466
20
-25.482133530540061
30
0
10
106.16489959197756
20
-25.436697873731386
30
0
10
106.07796132275342
20
-25.435993448906636
30
0
0
SPLINE
5
225
100
AcDbEntity
8
0
100
AcDbSpline
70
0
71
2
72
6
73
3
74
0
42
0.000000001
43
0.0000000001
44
0.0000000001
40
0
40
0
40
0
40
1
40
1
40
1
10
106.07796132275342
20
-25.435993448906636
30
0
10
105.91402085045701
20
-25.434665107090105
30
0
10
105.7836275573804
20
-25.585139442953121
30
0
0
SPLINE
5
226
100
AcDbEntity
8
0
100
AcDbSpline
70
0
71
2
72
6
73
3
74
0
42
0.000000001
43
0.0000000001
44
0.0000000001
40
0
40
0
40
0
40
1
40
1
40
1
10
105.7836275573804
20
-25.585139442953121
30
0
10
106.30617964624427
20
-26.08868023263744
30
0
10
107.00040246368118
20
-27.172410129044721
30
0
0
SPLINE
5
227
100
AcDbEntity
8
0
100
AcDbSpline
70
0
71
2
72
6
73
3
74
0
42
0.000000001
43
0.0000000001
44
0.0000000001
40
0
40
0
40
0
40
1
40
1
40
1
10
107.00040246368118
20
-27.172410129044721
30
0
10
107.21848679747303
20
-27.236280101954755
30
0
10
107.37745938570028
20
-27.237568191062135
30
0
0
SPLINE
5
228
100
AcDbEntity
8
0
100
AcDbSpline
70
0
71
2
72
6
73
3
74
0
42
0.000000001
43
0.0000000001
44
0.0000000001
40
0
40
0
40
0
40
1
40
1
40
1
10
105.82042850567984
20
-29.474316097015357
30
0
10
105.78320781889491
20
-29.474014513190426
30
0
10
105.48280946982474
20
-29.198017801086444
30
0
0
SPLINE
5
229
100
AcDbEntity
8
0
100
AcDbSpline
70
0
71
2
72
6
73
3
74
0
42
0.000000001
43
0.0000000001
44
0.0000000001
40
0
40
0
40
0
40
1
40
1
40
1
10
105.48280946982474
20
-29.198017801086444
30
0
10
105.15284535331861
20
-28.891932928123538
30
0
10
104.88887748473499
20
-28.402325955491904
30
0
0
LINE
5
230
100
AcDbEntity
8
0
100
AcDbLine
10
104.88887748473499
20
-28.402325955491904
30
0
11
104.67127618345289
21
-28.278841373751689
31
0
0
SPLINE
5
231
100
AcDbEntity
8
0
100
AcDbSpline
70
0
71
2
72
6
73
3
74
0
42
0.000000001
43
0.0000000001
44
0.0000000001
40
0
40
0
40
0
40
1
40
1
40
1
10
104.67127618345289
20
-28.278841373751689
30
0
10
104.02836779986521
20
-27.91343542199165
30
0
10
103.71608624111319
20
-27.51841533419768
30
0
0
SPLINE
5
232
100
AcDbEntity
8
0
100
AcDbSpline
70
0
71
2
72
6
73
3
74
0
42
0.000000001
43
0.0000000001
44
0.0000000001
40
0
40
0
40
0
40
1
40
1
40
1
10
103.71608624111319
20
-27.51841533419768
30
0
10
103.39396894755411
20
-27.110895323996548
30
0
10
103.39638411976166
20
-26.812821087791896
30
0
0
SPLINE
5
233
100
AcDbEntity
8
0
100
AcDbSpline
70
0
71
2
72
6
73
3
74
0
42
0.000000001
43
0.0000000001
44
0.0000000001
40
0
40
0
40
0
40
1
40
1
40
1
10
103.39638411976166
20
-26.812821087791896
30
0
10
103.39720930271385
20
-26.710979166360232
30
0
10
103.4623458675982
20
-26.643193901450534
30
0
0
SPLINE
5
234
100
AcDbEntity
8
0
100
AcDbSpline
70
0
71
2
72
6
73
3
74
0
42
0.000000001
43
0.0000000001
44
0.0000000001
40
0
40
0
40
0
40
1
40
1
40
1
10
103.4623458675982
20
-26.643193901450534
30
0
10
103.52748183645566
20
-26.575408631711479
30
0
10
103.62187222979699
20
-26.576173438014628
30
0
0
SPLINE
5
235
100
AcDbEntity
8
0
100
AcDbSpline
70
0
71
2
72
6
73
3
74
0
42
0.000000001
43
0.0000000001
44
0.0000000001
40
0
40
0
40
0
40
1
40
1
40
1
10
103.62187222979699
20
-26.576173438014628
30
0
10
104.12114606881694
20
-26.580218847357294
30
0
10
104.64587656517749
20
-27.734614763840788
30
0
0
SPLINE
5
236
100
AcDbEntity
8
0
100
AcDbSpline
70
0
71
2
72
6
73
3
74
0
42
0.000000001
43
0.0000000001
44
0.0000000001
40
0
40
0
40
0
40
1
40
1
40
1
10
104.64587656517749
20
-27.734614763840788
30
0
10
104.69230695795966
20
-27.829387262320257
30
0
10
104.77523137935881
20
-28.018851749031533
30
0
0
LINE
5
237
100
AcDbEntity
8
0
100
AcDbLine
10
104.77523137935881
20
-28.018851749031533
30
0
11
104.79728526036496
21
-28.056292019156235
31
0
0
LINE
5
238
100
AcDbEntity
8
0
100
AcDbLine
10
104.79728526036496
20
-28.056292019156235
30
0
11
105.57121895280761
21
-28.499766873195661
31
0
0
SPLINE
5
239
100
AcDbEntity
8
0
100
AcDbSpline
70
0
71
2
72
6
73
3
74
0
42
0.000000001
43
0.0000000001
44
0.0000000001
40
0
40
0
40
0
40
1
40
1
40
1
10
105.57121895280761
20
-28.499766873195664
30
0
10
105.21810749594052
20
-28.238557931609858
30
0
10
105.10851757187537
20
-28.120916433556673
30
0
0
SPLINE
5
240
100
AcDbEntity
8
0
100
AcDbSpline
70
0
71
2
72
6
73
3
74
0
42
0.000000001
43
0.0000000001
44
0.0000000001
40
0
40
0
40
0
40
1
40
1
40
1
10
105.10851757187537
20
-28.120916433556673
30
0
10
104.99892764539555
20
-28.003275233516931
30
0
10
104.99989371041508
20
-27.884046015856573
30
0
0
SPLINE
5
241
100
AcDbEntity
8
0
100
AcDbSpline
70
0
71
2
72
6
73
3
74
0
42
0.000000001
43
0.0000000001
44
0.0000000001
40
0
40
0
40
0
40
1
40
1
40
1
10
104.99989371041508
20
-27.884046015856573
30
0
10
105.00071889578196
20
-27.782203796411473
30
0
10
105.0882710200279
20
-27.707147840174482
30
0
0
SPLINE
5
242
100
AcDbEntity
8
0
100
AcDbSpline
70
0
71
2
72
6
73
3
74
0
42
0.000000001
43
0.0000000001
44
0.0000000001
40
0
40
0
40
0
40
1
40
1
40
1
10
105.0882710200279
20
-27.707147840174482
30
0
10
105.17582314427385
20
-27.632091883937498
30
0
10
105.29256871791306
20
-27.633037825017126
30
0
0
SPLINE
5
243
100
AcDbEntity
8
0
100
AcDbSpline
70
0
71
2
72
6
73
3
74
0
42
0.000000001
43
0.0000000001
44
0.0000000001
40
0
40
0
40
0
40
1
40
1
40
1
10
105.29256871791306
20
-27.633037825017126
30
0
10
105.43415400991162
20
-27.634185032057175
30
0
10
105.73328291413333
20
-27.812980808687428
30
0
0
LINE
5
244
100
AcDbEntity
8
0
100
AcDbLine
10
105.73328291413333
20
-27.812980808687428
30
0
11
106.37601046095797
21
-28.200741943160025
31
0
0
SPLINE
5
245
100
AcDbEntity
8
0
100
AcDbSpline
70
0
71
2
72
6
73
3
74
0
42
0.000000001
43
0.0000000001
44
0.0000000001
40
0
40
0
40
0
40
1
40
1
40
1
10
106.37601046095797
20
-28.200741943160025
30
0
10
106.36561148865098
20
-28.257792102122636
30
0
10
106.3650076955991
20
-28.3323106611738
30
0
0
SPLINE
5
246
100
AcDbEntity
8
0
100
AcDbSpline
70
0
71
2
72
6
73
3
74
0
42
0.000000001
43
0.0000000001
44
0.0000000001
40
0
40
0
40
0
40
1
40
1
40
1
10
106.3650076955991
20
-28.3323106611738
30
0
10
106.3644844103802
20
-28.396893154073158
30
0
10
106.38094648549603
20
-28.511295970587909
30
0
0
LINE
5
247
100
AcDbEntity
8
0
100
AcDbLine
10
106.38094648549603
20
-28.511295970587909
30
0
11
105.59004725623039
21
-28.015517444510706
31
0
0
SPLINE
5
248
100
AcDbEntity
8
0
100
AcDbSpline
70
0
71
2
72
6
73
3
74
0
42
0.000000001
43
0.0000000001
44
0.0000000001
40
0
40
0
40
0
40
1
40
1
40
1
10
105.59004725623039
20
-28.015517444510706
30
0
10
105.25392086409926
20
-27.804128526112169
30
0
10
105.14959500063301
20
-27.803283216805404
30
0
0
SPLINE
5
249
100
AcDbEntity
8
0
100
AcDbSpline
70
0
71
2
72
6
73
3
74
0
42
0.000000001
43
0.0000000001
44
0.0000000001
40
0
40
0
40
0
40
1
40
1
40
1
10
105.14959500063301
20
-27.803283216805404
30
0
10
105.03781731106299
20
-27.802377528434921
30
0
10
105.0369921281108
20
-27.904219449866581
30
0
0
SPLINE
5
250
100
AcDbEntity
8
0
100
AcDbSpline
70
0
71
2
72
6
73
3
74
0
42
0.000000001
43
0.0000000001
44
0.0000000001
40
0
40
0
40
0
40
1
40
1
40
1
10
105.0369921281108
20
-27.904219449866581
30
0
10
105.0348184769875
20
-28.172485785629263
30
0
10
105.98166293845763
20
-28.736599007406667
30
0
0
LINE
5
251
100
AcDbEntity
8
0
100
AcDbLine
10
105.98166293845763
20
-28.736599007406667
30
0
11
106.36979140049203
21
-28.96828211794265
31
0
0
SPLINE
5
252
100
AcDbEntity
8
0
100
AcDbSpline
70
0
71
2
72
6
73
3
74
0
42
0.000000001
43
0.0000000001
44
0.0000000001
40
0
40
0
40
0
40
1
40
1
40
1
10
106.36979140049201
20
-28.96828211794265
30
0
10
106.35939242577035
20
-29.025332574918707
30
0
10
106.35872825365475
20
-29.107302960073639
30
0
0
SPLINE
5
253
100
AcDbEntity
8
0
100
AcDbSpline
70
0
71
2
72
6
73
3
74
0
42
0.000000001
43
0.0000000001
44
0.0000000001
40
0
40
0
40
0
40
1
40
1
40
1
10
106.35872825365475
20
-29.107302960073639
30
0
10
106.35818484449594
20
-29.174369096994148
30
0
10
106.3747676777392
20
-29.273868261301352
30
0
0
SPLINE
5
254
100
AcDbEntity
8
0
100
AcDbSpline
70
0
71
2
72
6
73
3
74
0
42
0.000000001
43
0.0000000001
44
0.0000000001
40
0
40
0
40
0
40
1
40
1
40
1
10
106.3747676777392
20
-29.273868261301352
30
0
10
105.8879252796541
20
-28.961893949060851
30
0
10
104.94580718599828
20
-28.427628284407682
30
0
0
SPLINE
5
255
100
AcDbEntity
8
0
100
AcDbSpline
70
0
71
2
72
6
73
3
74
0
42
0.000000001
43
0.0000000001
44
0.0000000001
40
0
40
0
40
0
40
1
40
1
40
1
10
104.94580718599828
20
-28.427628284407682
30
0
10
105.09960483118664
20
-28.732285455309498
30
0
10
105.28023007999109
20
-28.942685920351394
30
0
0
SPLINE
5
256
100
AcDbEntity
8
0
100
AcDbSpline
70
0
71
2
72
6
73
3
74
0
42
0.000000001
43
0.0000000001
44
0.0000000001
40
0
40
0
40
0
40
1
40
1
40
1
10
105.28023007999109
20
-28.942685920351394
30
0
10
105.46085532155148
20
-29.153087279433613
30
0
10
105.79114328943024
20
-29.414421544091258
30
0
0
SPLINE
5
257
100
AcDbEntity
8
0
100
AcDbSpline
70
0
71
2
72
6
73
3
74
0
42
0.000000001
43
0.0000000001
44
0.0000000001
40
0
40
0
40
0
40
1
40
1
40
1
10
105.79114328943024
20
-29.414421544091258
30
0
10
105.83553342143311
20
-29.449597434796893
30
0
10
105.83545291601482
20
-29.459533202935255
30
0
0
SPLINE
5
258
100
AcDbEntity
8
0
100
AcDbSpline
70
0
71
2
72
6
73
3
74
0
42
0.000000001
43
0.0000000001
44
0.0000000001
40
0
40
0
40
0
40
1
40
1
40
1
10
105.83545291601482
20
-29.459533202935255
30
0
10
105.83533215788736
20
-29.474436855142798
30
0
10
105.82042850567984
20
-29.474316097015357
30
0
0
SPLINE
5
259
100
AcDbEntity
8
0
100
AcDbSpline
70
0
71
2
72
6
73
3
74
0
42
0.000000001
43
0.0000000001
44
0.0000000001
40
0
40
0
40
0
40
1
40
1
40
1
10
104.75525921130922
20
-28.031110448367897
30
0
10
104.73322575708576
20
-27.991185940609846
30
0
10
104.61594850263495
20
-27.749276899793458
30
0
0
SPLINE
5
260
100
AcDbEntity
8
0
100
AcDbSpline
70
0
71
2
72
6
73
3
74
0
42
0.000000001
43
0.0000000001
44
0.0000000001
40
0
40
0
40
0
40
1
40
1
40
1
10
104.61594850263495
20
-27.749276899793458
30
0
10
104.06373333504389
20
-26.614531127271697
30
0
10
103.61662257676379
20
-26.610908373789751
30
0
0
SPLINE
5
261
100
AcDbEntity
8
0
100
AcDbSpline
70
0
71
2
72
6
73
3
74
0
42
0.000000001
43
0.0000000001
44
0.0000000001
40
0
40
0
40
0
40
1
40
1
40
1
10
103.61662257676379
20
-26.610908373789751
30
0
10
103.43032603012915
20
-26.609398889952708
30
0
10
103.42863541151561
20
-26.818050616885209
30
0
0
SPLINE
5
262
100
AcDbEntity
8
0
100
AcDbSpline
70
0
71
2
72
6
73
3
74
0
42
0.000000001
43
0.0000000001
44
0.0000000001
40
0
40
0
40
0
40
1
40
1
40
1
10
103.42863541151561
20
-26.818050616885209
30
0
10
103.42650201068679
20
-27.081349366592153
30
0
10
103.71004296423081
20
-27.344478712284488
30
0
0
SPLINE
5
263
100
AcDbEntity
8
0
100
AcDbSpline
70
0
71
2
72
6
73
3
74
0
42
0.000000001
43
0.0000000001
44
0.0000000001
40
0
40
0
40
0
40
1
40
1
40
1
10
103.71004296423081
20
-27.344478712284488
30
0
10
103.99358392018948
20
-27.607607759963386
30
0
10
104.70584201322686
20
-27.99841667482675
30
0
0
SPLINE
5
264
100
AcDbEntity
8
0
100
AcDbSpline
70
0
71
2
72
6
73
3
74
0
42
0.000000001
43
0.0000000001
44
0.0000000001
40
0
40
0
40
0
40
1
40
1
40
1
10
104.70584201322686
20
-27.99841667482675
30
0
10
104.70584201322686
20
-27.99841667482675
30
0
10
104.75525921130922
20
-28.031110448367897
30
0
0
SPLINE
5
265
100
AcDbEntity
8
0
100
AcDbSpline
70
0
71
2
72
6
73
3
74
0
42
0.000000001
43
0.0000000001
44
0.0000000001
40
0
40
0
40
0
40
1
40
1
40
1
10
105.80997086266068
20
-31.071516015425598
30
0
10
105.75276241435687
20
-31.071052479039029
30
0
10
105.33030755177549
20
-30.707044731972285
30
0
0
SPLINE
5
266
100
AcDbEntity
8
0
100
AcDbSpline
70
0
71
2
72
6
73
3
74
0
42
0.000000001
43
0.0000000001
44
0.0000000001
40
0
40
0
40
0
40
1
40
1
40
1
10
105.33030755177549
20
-30.707044731972285
30
0
10
104.97946130968873
20
-30.405759466072038
30
0
10
104.98087173370935
20
-30.23168862285997
30
0
0
SPLINE
5
267
100
AcDbEntity
8
0
100
AcDbSpline
70
0
71
2
72
6
73
3
74
0
42
0.000000001
43
0.0000000001
44
0.0000000001
40
0
40
0
40
0
40
1
40
1
40
1
10
104.98087173370935
20
-30.23168862285997
30
0
10
104.98175855377333
20
-30.122239610321536
30
0
10
105.07055342586
20
-30.047116234974393
30
0
0
SPLINE
5
268
100
AcDbEntity
8
0
100
AcDbSpline
70
0
71
2
72
6
73
3
74
0
42
0.000000001
43
0.0000000001
44
0.0000000001
40
0
40
0
40
0
40
1
40
1
40
1
10
105.07055342586
20
-30.047116234974393
30
0
10
105.15934800476259
20
-29.97199226118569
30
0
10
105.28354540450556
20
-29.972998581329044
30
0
0
SPLINE
5
269
100
AcDbEntity
8
0
100
AcDbSpline
70
0
71
2
72
6
73
3
74
0
42
0.000000001
43
0.0000000001
44
0.0000000001
40
0
40
0
40
0
40
1
40
1
40
1
10
105.28354540450556
20
-29.972998581329044
30
0
10
105.38041944186804
20
-29.973783511572087
30
0
10
105.55351105007324
20
-30.072066398584067
30
0
0
LINE
5
270
100
AcDbEntity
8
0
100
AcDbLine
10
105.55351105007324
20
-30.072066398584067
30
0
11
105.48684684421731
21
-30.02184414390409
31
0
0
SPLINE
5
271
100
AcDbEntity
8
0
100
AcDbSpline
70
0
71
2
72
6
73
3
74
0
42
0.000000001
43
0.0000000001
44
0.0000000001
40
0
40
0
40
0
40
1
40
1
40
1
10
105.48684684421731
20
-30.02184414390409
30
0
10
105.19559271755884
20
-29.790945966025831
30
0
10
105.09710017382311
20
-29.683331103927372
30
0
0
SPLINE
5
272
100
AcDbEntity
8
0
100
AcDbSpline
70
0
71
2
72
6
73
3
74
0
42
0.000000001
43
0.0000000001
44
0.0000000001
40
0
40
0
40
0
40
1
40
1
40
1
10
105.09710017382311
20
-29.683331103927372
30
0
10
104.98626812731928
20
-29.565679839503002
30
0
10
104.98711343904071
20
-29.461353678023308
30
0
0
SPLINE
5
273
100
AcDbEntity
8
0
100
AcDbSpline
70
0
71
2
72
6
73
3
74
0
42
0.000000001
43
0.0000000001
44
0.0000000001
40
0
40
0
40
0
40
1
40
1
40
1
10
104.98711343904071
20
-29.461353678023308
30
0
10
104.98799899864196
20
-29.352060228501315
30
0
10
105.07429924132205
20
-29.278235734291513
30
0
0
SPLINE
5
274
100
AcDbEntity
8
0
100
AcDbSpline
70
0
71
2
72
6
73
3
74
0
42
0.000000001
43
0.0000000001
44
0.0000000001
40
0
40
0
40
0
40
1
40
1
40
1
10
105.07429924132205
20
-29.278235734291513
30
0
10
105.16059918115937
20
-29.204411833693918
30
0
10
105.28479658090234
20
-29.205418153837268
30
0
0
SPLINE
5
275
100
AcDbEntity
8
0
100
AcDbSpline
70
0
71
2
72
6
73
3
74
0
42
0.000000001
43
0.0000000001
44
0.0000000001
40
0
40
0
40
0
40
1
40
1
40
1
10
105.28479658090234
20
-29.205418153837268
30
0
10
105.42886581493549
20
-29.206585487231891
30
0
10
105.61425637518619
20
-29.319872658224284
30
0
0
LINE
5
276
100
AcDbEntity
8
0
100
AcDbLine
10
105.61425637518619
20
-29.319872658224284
30
0
11
106.37068171767395
21
-29.778109981975799
31
0
0
SPLINE
5
277
100
AcDbEntity
8
0
100
AcDbSpline
70
0
71
2
72
6
73
3
74
0
42
0.000000001
43
0.0000000001
44
0.0000000001
40
0
40
0
40
0
40
1
40
1
40
1
10
106.37068171767396
20
-29.778109981975799
30
0
10
106.3526101205604
20
-29.86242372511143
30
0
10
106.35222772223818
20
-29.909618325755215
30
0
0
SPLINE
5
278
100
AcDbEntity
8
0
100
AcDbSpline
70
0
71
2
72
6
73
3
74
0
42
0.000000001
43
0.0000000001
44
0.0000000001
40
0
40
0
40
0
40
1
40
1
40
1
10
106.35222772223818
20
-29.909618325755215
30
0
10
106.35184531908662
20
-29.956813522425882
30
0
10
106.36824642152652
20
-30.078667862201598
30
0
0
LINE
5
279
100
AcDbEntity
8
0
100
AcDbLine
10
106.36824642152652
20
-30.078667862201598
30
0
11
105.39932854872255
21
-29.479598317163443
31
0
0
SPLINE
5
280
100
AcDbEntity
8
0
100
AcDbSpline
70
0
71
2
72
6
73
3
74
0
42
0.000000001
43
0.0000000001
44
0.0000000001
40
0
40
0
40
0
40
1
40
1
40
1
10
105.39932854872255
20
-29.479598317163447
30
0
10
105.25101597938487
20
-29.388968817814416
30
0
10
105.13675434778025
20
-29.388043003089351
30
0
0
SPLINE
5
281
100
AcDbEntity
8
0
100
AcDbSpline
70
0
71
2
72
6
73
3
74
0
42
0.000000001
43
0.0000000001
44
0.0000000001
40
0
40
0
40
0
40
1
40
1
40
1
10
105.13675434778025
20
-29.388043003089351
30
0
10
105.02497665821024
20
-29.387137314718863
30
0
10
105.02421185673643
20
-29.481527112033316
30
0
0
SPLINE
5
282
100
AcDbEntity
8
0
100
AcDbSpline
70
0
71
2
72
6
73
3
74
0
42
0.000000001
43
0.0000000001
44
0.0000000001
40
0
40
0
40
0
40
1
40
1
40
1
10
105.02421185673643
20
-29.481527112033316
30
0
10
105.02217908768047
20
-29.732406151567304
30
0
10
105.95413972769887
20
-30.293914372754553
30
0
0
LINE
5
283
100
AcDbEntity
8
0
100
AcDbLine
10
105.95413972769887
20
-30.293914372754553
30
0
11
106.36450290508778
21
-30.540682868716122
31
0
0
SPLINE
5
284
100
AcDbEntity
8
0
100
AcDbSpline
70
0
71
2
72
6
73
3
74
0
42
0.000000001
43
0.0000000001
44
0.0000000001
40
0
40
0
40
0
40
1
40
1
40
1
10
106.36450290508778
20
-30.540682868716125
30
0
10
106.34649168945262
20
-30.617544487734545
30
0
10
106.3460690335919
20
-30.669707568474394
30
0
0
SPLINE
5
285
100
AcDbEntity
8
0
100
AcDbSpline
70
0
71
2
72
6
73
3
74
0
42
0.000000001
43
0.0000000001
44
0.0000000001
40
0
40
0
40
0
40
1
40
1
40
1
10
106.3460690335919
20
-30.669707568474394
30
0
10
106.34556587714223
20
-30.731805821325722
30
0
10
106.36202735623121
20
-30.846208633011113
30
0
0
LINE
5
286
100
AcDbEntity
8
0
100
AcDbLine
10
106.36202735623121
20
-30.846208633011113
30
0
11
105.71693692351286
21
-30.443523722391078
31
0
0
SPLINE
5
287
100
AcDbEntity
8
0
100
AcDbSpline
70
0
71
2
72
6
73
3
74
0
42
0.000000001
43
0.0000000001
44
0.0000000001
40
0
40
0
40
0
40
1
40
1
40
1
10
105.71693692351286
20
-30.443523722391074
30
0
10
105.25721662909186
20
-30.156609624369906
30
0
10
105.12556740324511
20
-30.15554292516283
30
0
0
SPLINE
5
288
100
AcDbEntity
8
0
100
AcDbSpline
70
0
71
2
72
6
73
3
74
0
42
0.000000001
43
0.0000000001
44
0.0000000001
40
0
40
0
40
0
40
1
40
1
40
1
10
105.12556740324511
20
-30.15554292516283
30
0
10
105.01875759774427
20
-30.154677489501491
30
0
10
105.01793115432932
20
-30.256674973949597
30
0
0
SPLINE
5
289
100
AcDbEntity
8
0
100
AcDbSpline
70
0
71
2
72
6
73
3
74
0
42
0.000000001
43
0.0000000001
44
0.0000000001
40
0
40
0
40
0
40
1
40
1
40
1
10
105.01793115432932
20
-30.256674973949597
30
0
10
105.01631883894626
20
-30.455662721002351
30
0
10
105.63961656583493
20
-30.908474257331868
30
0
0
LINE
5
290
100
AcDbEntity
8
0
100
AcDbLine
10
105.63961656583493
20
-30.908474257331868
30
0
11
105.74595677520726
21
-30.986459677369208
31
0
0
LINE
5
291
100
AcDbEntity
8
0
100
AcDbLine
10
105.74595677520726
20
-30.986459677369211
30
0
11
105.80035743493319
21
-31.031653099679581
31
0
0
SPLINE
5
292
100
AcDbEntity
8
0
100
AcDbSpline
70
0
71
2
72
6
73
3
74
0
42
0.000000001
43
0.0000000001
44
0.0000000001
40
0
40
0
40
0
40
1
40
1
40
1
10
105.8003574349332
20
-31.031653099679577
30
0
10
105.82509620519666
20
-31.044313115573775
30
0
10
105.8249955710091
20
-31.056733123760175
30
0
0
SPLINE
5
293
100
AcDbEntity
8
0
100
AcDbSpline
70
0
71
2
72
6
73
3
74
0
42
0.000000001
43
0.0000000001
44
0.0000000001
40
0
40
0
40
0
40
1
40
1
40
1
10
105.8249955710091
20
-31.056733123760175
30
0
10
105.82487481288167
20
-31.071636775967715
30
0
10
105.80997086266068
20
-31.071516015425598
30
0
0
SPLINE
5
294
100
AcDbEntity
8
0
100
AcDbSpline
70
0
71
2
72
6
73
3
74
0
42
0.000000001
43
0.0000000001
44
0.0000000001
40
0
40
0
40
0
40
1
40
1
40
1
10
105.79384960193904
20
-33.061159843415041
30
0
10
105.74160903770442
20
-33.06073655973762
30
0
10
105.31418629105386
20
-32.696688559961736
30
0
0
SPLINE
5
295
100
AcDbEntity
8
0
100
AcDbSpline
70
0
71
2
72
6
73
3
74
0
42
0.000000001
43
0.0000000001
44
0.0000000001
40
0
40
0
40
0
40
1
40
1
40
1
10
105.31418629105386
20
-32.696688559961736
30
0
10
104.96331992502721
20
-32.397886938082635
30
0
10
104.96469009150931
20
-32.228784574966632
30
0
0
SPLINE
5
296
100
AcDbEntity
8
0
100
AcDbSpline
70
0
71
2
72
6
73
3
74
0
42
0.000000001
43
0.0000000001
44
0.0000000001
40
0
40
0
40
0
40
1
40
1
40
1
10
104.96469009150931
20
-32.228784574966632
30
0
10
104.96559672643421
20
-32.116890064127553
30
0
10
105.05314963786572
20
-32.041736955508647
30
0
0
SPLINE
5
297
100
AcDbEntity
8
0
100
AcDbSpline
70
0
71
2
72
6
73
3
74
0
42
0.000000001
43
0.0000000001
44
0.0000000001
40
0
40
0
40
0
40
1
40
1
40
1
10
105.05314963786572
20
-32.041736955508647
30
0
10
105.14070254929722
20
-31.966583846889741
30
0
10
105.26738389107479
20
-31.967610293387668
30
0
0
SPLINE
5
298
100
AcDbEntity
8
0
100
AcDbSpline
70
0
71
2
72
6
73
3
74
0
42
0.000000001
43
0.0000000001
44
0.0000000001
40
0
40
0
40
0
40
1
40
1
40
1
10
105.26738389107479
20
-31.967610293387668
30
0
10
105.37916187865825
20
-31.968515984172832
30
0
10
105.47442145722977
20
-32.015243926677904
30
0
0
SPLINE
5
299
100
AcDbEntity
8
0
100
AcDbSpline
70
0
71
2
72
6
73
3
74
0
42
0.000000001
43
0.0000000001
44
0.0000000001
40
0
40
0
40
0
40
1
40
1
40
1
10
105.47442145722977
20
-32.015243926677904
30
0
10
105.56968133381473
20
-32.061971871597649
30
0
10
105.85128146129887
20
-32.258014355573344
30
0
0
SPLINE
5
300
100
AcDbEntity
8
0
100
AcDbSpline
70
0
71
2
72
6
73
3
74
0
42
0.000000001
43
0.0000000001
44
0.0000000001
40
0
40
0
40
0
40
1
40
1
40
1
10
105.85128146129887
20
-32.258014355573344
30
0
10
106.14772545553902
20
-32.461629726623052
30
0
10
106.22969584069395
20
-32.46229389873865
30
0
0
SPLINE
5
301
100
AcDbEntity
8
0
100
AcDbSpline
70
0
71
2
72
6
73
3
74
0
42
0.000000001
43
0.0000000001
44
0.0000000001
40
0
40
0
40
0
40
1
40
1
40
1
10
106.22969584069395
20
-32.46229389873865
30
0
10
106.33153776212561
20
-32.463119081690841
30
0
10
106.33240319778695
20
-32.356309276190004
30
0
0
SPLINE
5
302
100
AcDbEntity
8
0
100
AcDbSpline
70
0
71
2
72
6
73
3
74
0
42
0.000000001
43
0.0000000001
44
0.0000000001
40
0
40
0
40
0
40
1
40
1
40
1
10
106.33240319778695
20
-32.356309276190004
30
0
10
106.3353416552134
20
-31.993652547085993
30
0
10
104.99515933138483
20
-31.227623266478545
30
0
0
SPLINE
5
303
100
AcDbEntity
8
0
100
AcDbSpline
70
0
71
2
72
6
73
3
74
0
42
0.000000001
43
0.0000000001
44
0.0000000001
40
0
40
0
40
0
40
1
40
1
40
1
10
104.99515933138483
20
-31.227623266478545
30
0
10
105.00608129331196
20
-31.10599031418845
30
0
10
105.0062825568577
20
-31.081150893842544
30
0
0
SPLINE
5
304
100
AcDbEntity
8
0
100
AcDbSpline
70
0
71
2
72
6
73
3
74
0
42
0.000000001
43
0.0000000001
44
0.0000000001
40
0
40
0
40
0
40
1
40
1
40
1
10
105.0062825568577
20
-31.081150893842544
30
0
10
105.00698698168245
20
-30.994212624618427
30
0
10
104.99767513295055
20
-30.91712961811438
30
0
0
LINE
5
305
100
AcDbEntity
8
0
100
AcDbLine
10
104.99767513295055
20
-30.91712961811438
30
0
11
105.60807088260292
21
-31.309596991632024
31
0
0
SPLINE
5
306
100
AcDbEntity
8
0
100
AcDbSpline
70
0
71
2
72
6
73
3
74
0
42
0.000000001
43
0.0000000001
44
0.0000000001
40
0
40
0
40
0
40
1
40
1
40
1
10
105.60807088260292
20
-31.309596991632024
30
0
10
106.13199127160104
20
-31.644228975515887
30
0
10
106.2636404974478
20
-31.645295674722959
30
0
0
SPLINE
5
307
100
AcDbEntity
8
0
100
AcDbSpline
70
0
71
2
72
6
73
3
74
0
42
0.000000001
43
0.0000000001
44
0.0000000001
40
0
40
0
40
0
40
1
40
1
40
1
10
106.2636404974478
20
-31.645295674722959
30
0
10
106.3381593545124
20
-31.645899470189526
30
0
10
106.33866345751647
20
-31.583684396069142
30
0
0
SPLINE
5
308
100
AcDbEntity
8
0
100
AcDbSpline
70
0
71
2
72
6
73
3
74
0
42
0.000000001
43
0.0000000001
44
0.0000000001
40
0
40
0
40
0
40
1
40
1
40
1
10
106.33866345751647
20
-31.583684396069142
30
0
10
106.33969210620221
20
-31.456731266032961
30
0
10
105.80746495109182
20
-31.079025813006048
30
0
0
SPLINE
5
309
100
AcDbEntity
8
0
100
AcDbSpline
70
0
71
2
72
6
73
3
74
0
42
0.000000001
43
0.0000000001
44
0.0000000001
40
0
40
0
40
0
40
1
40
1
40
1
10
105.80746495109182
20
-31.079025813006048
30
0
10
105.77531611839549
20
-31.056369336001417
30
0
10
105.77293312445681
20
-31.043890459713054
30
0
0
SPLINE
5
310
100
AcDbEntity
8
0
100
AcDbSpline
70
0
71
2
72
6
73
3
74
0
42
0.000000001
43
0.0000000001
44
0.0000000001
40
0
40
0
40
0
40
1
40
1
40
1
10
105.77293312445681
20
-31.043890459713054
30
0
10
105.77303375381499
20
-31.031471047553545
30
0
10
105.78795753479179
20
-31.029107565632952
30
0
0
SPLINE
5
311
100
AcDbEntity
8
0
100
AcDbSpline
70
0
71
2
72
6
73
3
74
0
42
0.000000001
43
0.0000000001
44
0.0000000001
40
0
40
0
40
0
40
1
40
1
40
1
10
105.78795753479179
20
-31.029107565632952
30
0
10
105.80039615595632
20
-31.031692753776881
30
0
10
105.80778760541106
20
-31.039204660930931
30
0
0
LINE
5
312
100
AcDbEntity
8
0
100
AcDbLine
10
105.80778760541106
20
-31.039204660930931
30
0
11
105.86961964856316
21
-31.086981444100438
31
0
0
SPLINE
5
313
100
AcDbEntity
8
0
100
AcDbSpline
70
0
71
2
72
6
73
3
74
0
42
0.000000001
43
0.0000000001
44
0.0000000001
40
0
40
0
40
0
40
1
40
1
40
1
10
105.86961964856316
20
-31.086981444100445
30
0
10
106.37683173422703
20
-31.471781846569545
30
0
10
106.3757634654782
20
-31.603624781153247
30
0
0
SPLINE
5
314
100
AcDbEntity
8
0
100
AcDbSpline
70
0
71
2
72
6
73
3
74
0
42
0.000000001
43
0.0000000001
44
0.0000000001
40
0
40
0
40
0
40
1
40
1
40
1
10
106.3757634654782
20
-31.603624781153247
30
0
10
106.37507790895995
20
-31.688234373345775
30
0
10
106.29759158817888
20
-31.74732221515141
30
0
0
SPLINE
5
315
100
AcDbEntity
8
0
100
AcDbSpline
70
0
71
2
72
6
73
3
74
0
42
0.000000001
43
0.0000000001
44
0.0000000001
40
0
40
0
40
0
40
1
40
1
40
1
10
106.29759158817888
20
-31.74732221515141
30
0
10
106.22010556541125
20
-31.806410059371728
30
0
10
106.11329546189695
20
-31.805544621295709
30
0
0
SPLINE
5
316
100
AcDbEntity
8
0
100
AcDbSpline
70
0
71
2
72
6
73
3
74
0
42
0.000000001
43
0.0000000001
44
0.0000000001
40
0
40
0
40
0
40
1
40
1
40
1
10
106.11329546189695
20
-31.805544621295709
30
0
10
105.95432287366972
20
-31.804256532188329
30
0
10
105.67266206669373
20
-31.615666169915173
30
0
0
SPLINE
5
317
100
AcDbEntity
8
0
100
AcDbSpline
70
0
71
2
72
6
73
3
74
0
42
0.000000001
43
0.0000000001
44
0.0000000001
40
0
40
0
40
0
40
1
40
1
40
1
10
105.67266206669373
20
-31.615666169915173
30
0
10
106.07517089088739
20
-31.912053127504834
30
0
10
106.22292998185229
20
-32.070991479825274
30
0
0
SPLINE
5
318
100
AcDbEntity
8
0
100
AcDbSpline
70
0
71
2
72
6
73
3
74
0
42
0.000000001
43
0.0000000001
44
0.0000000001
40
0
40
0
40
0
40
1
40
1
40
1
10
106.22292998185229
20
-32.070991479825274
30
0
10
106.37068877480374
20
-32.229929829731034
30
0
10
106.36960195165678
20
-32.364062699598939
30
0
0
SPLINE
5
319
100
AcDbEntity
8
0
100
AcDbSpline
70
0
71
2
72
6
73
3
74
0
42
0.000000001
43
0.0000000001
44
0.0000000001
40
0
40
0
40
0
40
1
40
1
40
1
10
106.36960195165678
20
-32.364062699598939
30
0
10
106.36871638722619
20
-32.473356745147811
30
0
10
106.27869038533026
20
-32.547150455006211
30
0
0
SPLINE
5
320
100
AcDbEntity
8
0
100
AcDbSpline
70
0
71
2
72
6
73
3
74
0
42
0.000000001
43
0.0000000001
44
0.0000000001
40
0
40
0
40
0
40
1
40
1
40
1
10
106.27869038533026
20
-32.547150455006211
30
0
10
106.18866437860501
20
-32.62094476089149
30
0
10
106.05701515275825
20
-32.619878061684418
30
0
0
SPLINE
5
321
100
AcDbEntity
8
0
100
AcDbSpline
70
0
71
2
72
6
73
3
74
0
42
0.000000001
43
0.0000000001
44
0.0000000001
40
0
40
0
40
0
40
1
40
1
40
1
10
106.05701515275825
20
-32.619878061684418
30
0
10
105.89059044041379
20
-32.618529591098635
30
0
10
105.54965687703663
20
-32.387228881299549
30
0
0
SPLINE
5
322
100
AcDbEntity
8
0
100
AcDbSpline
70
0
71
2
72
6
73
3
74
0
42
0.000000001
43
0.0000000001
44
0.0000000001
40
0
40
0
40
0
40
1
40
1
40
1
10
105.54965687703663
20
-32.387228881299549
30
0
10
105.20131204310763
20
-32.150899314755357
30
0
10
105.10443800574515
20
-32.150114384512314
30
0
0
SPLINE
5
323
100
AcDbEntity
8
0
100
AcDbSpline
70
0
71
2
72
6
73
3
74
0
42
0.000000001
43
0.0000000001
44
0.0000000001
40
0
40
0
40
0
40
1
40
1
40
1
10
105.10443800574515
20
-32.150114384512314
30
0
10
105.00259608431348
20
-32.149289201560123
30
0
10
105.00176964089853
20
-32.251286686008228
30
0
0
SPLINE
5
324
100
AcDbEntity
8
0
100
AcDbSpline
70
0
71
2
72
6
73
3
74
0
42
0.000000001
43
0.0000000001
44
0.0000000001
40
0
40
0
40
0
40
1
40
1
40
1
10
105.00176964089853
20
-32.251286686008228
30
0
10
104.99997587683066
20
-32.472668355106244
30
0
10
105.78423617421157
20
-33.021296927669027
30
0
0
SPLINE
5
325
100
AcDbEntity
8
0
100
AcDbSpline
70
0
71
2
72
6
73
3
74
0
42
0.000000001
43
0.0000000001
44
0.0000000001
40
0
40
0
40
0
40
1
40
1
40
1
10
105.78423617421157
20
-33.021296927669027
30
0
10
105.80897494447501
20
-33.033956943563226
30
0
10
105.80887431511684
20
-33.046376355722735
30
0
0
SPLINE
5
326
100
AcDbEntity
8
0
100
AcDbSpline
70
0
71
2
72
6
73
3
74
0
42
0.000000001
43
0.0000000001
44
0.0000000001
40
0
40
0
40
0
40
1
40
1
40
1
10
105.80887431511684
20
-33.046376355722735
30
0
10
105.80875355216003
20
-33.061280603957158
30
0
10
105.79384960193904
20
-33.061159843415041
30
0
0
LINE
5
327
100
AcDbEntity
8
0
100
AcDbLine
10
106.35649965377988
20
-33.981114030346006
30
0
11
106.31940153409761
21
-33.960940598750675
31
0
0
LINE
5
328
100
AcDbEntity
8
0
100
AcDbLine
10
106.31940153409761
20
-33.960940598750675
30
0
11
106.32203809862014
21
-33.635542702152087
31
0
0
LINE
5
329
100
AcDbEntity
8
0
100
AcDbLine
10
106.32203809862013
20
-33.635542702152087
30
0
11
105.38014139244993
21
-33.073953973131857
31
0
0
SPLINE
5
330
100
AcDbEntity
8
0
100
AcDbSpline
70
0
71
2
72
6
73
3
74
0
42
0.000000001
43
0.0000000001
44
0.0000000001
40
0
40
0
40
0
40
1
40
1
40
1
10
105.38014139244993
20
-33.073953973131857
30
0
10
105.20957397898849
20
-32.970723328405271
30
0
10
105.10773205755683
20
-32.969898145453072
30
0
0
SPLINE
5
331
100
AcDbEntity
8
0
100
AcDbSpline
70
0
71
2
72
6
73
3
74
0
42
0.000000001
43
0.0000000001
44
0.0000000001
40
0
40
0
40
0
40
1
40
1
40
1
10
105.10773205755683
20
-32.969898145453072
30
0
10
104.9959543679868
20
-32.968992457082592
30
0
10
104.99500716644441
20
-33.085893593738248
30
0
0
SPLINE
5
332
100
AcDbEntity
8
0
100
AcDbSpline
70
0
71
2
72
6
73
3
74
0
42
0.000000001
43
0.0000000001
44
0.0000000001
40
0
40
0
40
0
40
1
40
1
40
1
10
104.99500716644441
20
-33.085893593738248
30
0
10
104.99317314966738
20
-33.312243146905445
30
0
10
105.77747369975745
20
-33.855903835399047
30
0
0
SPLINE
5
333
100
AcDbEntity
8
0
100
AcDbSpline
70
0
71
2
72
6
73
3
74
0
42
0.000000001
43
0.0000000001
44
0.0000000001
40
0
40
0
40
0
40
1
40
1
40
1
10
105.77747369975745
20
-33.855903835399047
30
0
10
105.80217221731175
20
-33.87353173536242
30
0
10
105.80207158312419
20
-33.885951743548816
30
0
0
SPLINE
5
334
100
AcDbEntity
8
0
100
AcDbSpline
70
0
71
2
72
6
73
3
74
0
42
0.000000001
43
0.0000000001
44
0.0000000001
40
0
40
0
40
0
40
1
40
1
40
1
10
105.80207158312419
20
-33.885951743548816
30
0
10
105.80195082982611
20
-33.900854799729473
30
0
10
105.78704687960513
20
-33.900734039187356
30
0
0
SPLINE
5
335
100
AcDbEntity
8
0
100
AcDbSpline
70
0
71
2
72
6
73
3
74
0
42
0.000000001
43
0.0000000001
44
0.0000000001
40
0
40
0
40
0
40
1
40
1
40
1
10
105.78704687960513
20
-33.900734039187356
30
0
10
105.77961548028405
20
-33.898189422490283
30
0
10
105.74742758227327
20
-33.875572565378455
30
0
0
LINE
5
336
100
AcDbEntity
8
0
100
AcDbLine
10
105.74742758227327
20
-33.875572565378455
30
0
11
105.60154678167089
21
-33.767456906902936
31
0
0
SPLINE
5
337
100
AcDbEntity
8
0
100
AcDbSpline
70
0
71
2
72
6
73
3
74
0
42
0.000000001
43
0.0000000001
44
0.0000000001
40
0
40
0
40
0
40
1
40
1
40
1
10
105.60154678167089
20
-33.767456906902936
30
0
10
104.95605366147737
20
-33.29467017818564
30
0
10
104.95796787459369
20
-33.058423002600584
30
0
0
SPLINE
5
338
100
AcDbEntity
8
0
100
AcDbSpline
70
0
71
2
72
6
73
3
74
0
42
0.000000001
43
0.0000000001
44
0.0000000001
40
0
40
0
40
0
40
1
40
1
40
1
10
104.95796787459369
20
-33.058423002600584
30
0
10
104.95891475739838
20
-32.941561203719203
30
0
10
105.04400385556454
20
-32.863903728697693
30
0
0
SPLINE
5
339
100
AcDbEntity
8
0
100
AcDbSpline
70
0
71
2
72
6
73
3
74
0
42
0.000000001
43
0.0000000001
44
0.0000000001
40
0
40
0
40
0
40
1
40
1
40
1
10
105.04400385556454
20
-32.863903728697693
30
0
10
105.12909294890135
20
-32.786246849703069
30
0
10
105.25577429067891
20
-32.787273296200993
30
0
0
SPLINE
5
340
100
AcDbEntity
8
0
100
AcDbSpline
70
0
71
2
72
6
73
3
74
0
42
0.000000001
43
0.0000000001
44
0.0000000001
40
0
40
0
40
0
40
1
40
1
40
1
10
105.25577429067891
20
-32.787273296200993
30
0
10
105.40481140878126
20
-32.788480882304761
30
0
10
105.62730008871421
20
-32.921941484892486
30
0
0
LINE
5
341
100
AcDbEntity
8
0
100
AcDbLine
10
105.62730008871421
20
-32.921941484892486
30
0
11
106.32439288934927
21
-33.344920590064646
31
0
0
LINE
5
342
100
AcDbEntity
8
0
100
AcDbLine
10
106.32439288934927
20
-33.344920590064646
30
0
11
106.32644578234513
21
-33.091557906509507
31
0
0
LINE
5
343
100
AcDbEntity
8
0
100
AcDbLine
10
106.32644578234512
20
-33.091557906509507
30
0
11
106.36350364931823
21
-33.116699222174013
31
0
0
LINE
5
344
100
AcDbEntity
8
0
100
AcDbLine
10
106.36350364931826
20
-33.11669922217402
30
0
11
106.36149100903154
21
-33.365094021659971
31
0
0
LINE
5
345
100
AcDbEntity
8
0
100
AcDbLine
10
106.36149100903154
20
-33.365094021659971
30
0
11
106.84102246308021
21
-33.659620658608063
31
0
0
SPLINE
5
346
100
AcDbEntity
8
0
100
AcDbSpline
70
0
71
2
72
6
73
3
74
0
42
0.000000001
43
0.0000000001
44
0.0000000001
40
0
40
0
40
0
40
1
40
1
40
1
10
106.84102246308022
20
-33.659620658608063
30
0
10
106.82054713133694
20
-33.733978504836074
30
0
10
106.82000371734875
20
-33.80104523778347
30
0
0
SPLINE
5
347
100
AcDbEntity
8
0
100
AcDbSpline
70
0
71
2
72
6
73
3
74
0
42
0.000000001
43
0.0000000001
44
0.0000000001
40
0
40
0
40
0
40
1
40
1
40
1
10
106.82000371734875
20
-33.80104523778347
30
0
10
106.81944017942071
20
-33.870595614752013
30
0
10
106.83870792023086
20
-33.945275482653201
30
0
0
LINE
5
348
100
AcDbEntity
8
0
100
AcDbLine
10
106.83870792023086
20
-33.945275482653201
30
0
11
106.3591362183024
21
-33.655716133747411
31
0
0
LINE
5
349
100
AcDbEntity
8
0
100
AcDbLine
10
106.35913621830241
20
-33.655716133747411
30
0
11
106.35649965377988
21
-33.981114030346006
31
0
0
SPLINE
5
350
100
AcDbEntity
8
0
100
AcDbSpline
70
0
71
2
72
6
73
3
74
0
42
0.000000001
43
0.0000000001
44
0.0000000001
40
0
40
0
40
0
40
1
40
1
40
1
10
105.77289800646106
20
-35.646950951760026
30
0
10
105.72065744222643
20
-35.646527668082605
30
0
10
105.29325481951575
20
-35.279996024285573
30
0
0
SPLINE
5
351
100
AcDbEntity
8
0
100
AcDbSpline
70
0
71
2
72
6
73
3
74
0
42
0.000000001
43
0.0000000001
44
0.0000000001
40
0
40
0
40
0
40
1
40
1
40
1
10
105.29325481951575
20
-35.279996024285573
30
0
10
104.94236833437859
20
-34.983677450400734
30
0
10
104.94373850086069
20
-34.814575087284737
30
0
0
SPLINE
5
352
100
AcDbEntity
8
0
100
AcDbSpline
70
0
71
2
72
6
73
3
74
0
42
0.000000001
43
0.0000000001
44
0.0000000001
40
0
40
0
40
0
40
1
40
1
40
1
10
104.94373850086069
20
-34.814575087284737
30
0
10
104.94466557363383
20
-34.700158190677115
30
0
10
105.03094631536138
20
-34.628740453020569
30
0
0
SPLINE
5
353
100
AcDbEntity
8
0
100
AcDbSpline
70
0
71
2
72
6
73
3
74
0
42
0.000000001
43
0.0000000001
44
0.0000000001
40
0
40
0
40
0
40
1
40
1
40
1
10
105.03094631536138
20
-34.628740453020569
30
0
10
105.11722675907549
20
-34.557322712949336
30
0
10
105.24639204288763
20
-34.558369285801838
30
0
0
SPLINE
5
354
100
AcDbEntity
8
0
100
AcDbSpline
70
0
71
2
72
6
73
3
74
0
42
0.000000001
43
0.0000000001
44
0.0000000001
40
0
40
0
40
0
40
1
40
1
40
1
10
105.24639204288763
20
-34.558369285801838
30
0
10
105.38052550878243
20
-34.559456113778168
30
0
10
105.53637011162874
20
-34.640210221637872
30
0
0
SPLINE
5
355
100
AcDbEntity
8
0
100
AcDbSpline
70
0
71
2
72
6
73
3
74
0
42
0.000000001
43
0.0000000001
44
0.0000000001
40
0
40
0
40
0
40
1
40
1
40
1
10
105.53637011162874
20
-34.640210221637872
30
0
10
105.19062996820307
20
-34.38899832129448
30
0
10
105.06998321936047
20
-34.256361709605187
30
0
0
SPLINE
5
356
100
AcDbEntity
8
0
100
AcDbSpline
70
0
71
2
72
6
73
3
74
0
42
0.000000001
43
0.0000000001
44
0.0000000001
40
0
40
0
40
0
40
1
40
1
40
1
10
105.06998321936047
20
-34.256361709605187
30
0
10
104.94933616284571
20
-34.123726287554973
30
0
10
104.95034247574502
20
-33.999529781852324
30
0
0
SPLINE
5
357
100
AcDbEntity
8
0
100
AcDbSpline
70
0
71
2
72
6
73
3
74
0
42
0.000000001
43
0.0000000001
44
0.0000000001
40
0
40
0
40
0
40
1
40
1
40
1
10
104.95034247574502
20
-33.999529781852324
30
0
10
104.95140918461082
20
-33.867879363951808
30
0
10
105.06515354296951
20
-33.779373203461645
30
0
0
SPLINE
5
358
100
AcDbEntity
8
0
100
AcDbSpline
70
0
71
2
72
6
73
3
74
0
42
0.000000001
43
0.0000000001
44
0.0000000001
40
0
40
0
40
0
40
1
40
1
40
1
10
105.06515354296951
20
-33.779373203461645
30
0
10
105.17889790132818
20
-33.690867042971497
30
0
10
105.35029019972839
20
-33.692255763851747
30
0
0
SPLINE
5
359
100
AcDbEntity
8
0
100
AcDbSpline
70
0
71
2
72
6
73
3
74
0
42
0.000000001
43
0.0000000001
44
0.0000000001
40
0
40
0
40
0
40
1
40
1
40
1
10
105.35029019972839
20
-33.692255763851747
30
0
10
105.82720885845046
20
-33.696120038417931
30
0
10
106.18937891461805
20
-34.372249123607013
30
0
0
SPLINE
5
360
100
AcDbEntity
8
0
100
AcDbSpline
70
0
71
2
72
6
73
3
74
0
42
0.000000001
43
0.0000000001
44
0.0000000001
40
0
40
0
40
0
40
1
40
1
40
1
10
106.18937891461805
20
-34.372249123607013
30
0
10
106.35092464148963
20
-34.669167463994846
30
0
10
106.34945541519109
20
-34.850495530533408
30
0
0
SPLINE
5
361
100
AcDbEntity
8
0
100
AcDbSpline
70
0
71
2
72
6
73
3
74
0
42
0.000000001
43
0.0000000001
44
0.0000000001
40
0
40
0
40
0
40
1
40
1
40
1
10
106.34945541519109
20
-34.850495530533408
30
0
10
106.34820757637817
20
-35.004500532704917
30
0
10
106.19917075628928
20
-35.00329294901583
30
0
0
SPLINE
5
362
100
AcDbEntity
8
0
100
AcDbSpline
70
0
71
2
72
6
73
3
74
0
42
0.000000001
43
0.0000000001
44
0.0000000001
40
0
40
0
40
0
40
1
40
1
40
1
10
106.19917075628928
20
-35.00329294901583
30
0
10
106.15694344368779
20
-35.002950798573401
30
0
10
106.0875537795424
20
-34.982515721953938
30
0
0
LINE
5
363
100
AcDbEntity
8
0
100
AcDbLine
10
106.0875537795424
20
-34.982515721953938
30
0
11
106.32747030159732
21
-35.111149920981376
31
0
0
SPLINE
5
364
100
AcDbEntity
8
0
100
AcDbSpline
70
0
71
2
72
6
73
3
74
0
42
0.000000001
43
0.0000000001
44
0.0000000001
40
0
40
0
40
0
40
1
40
1
40
1
10
106.32747030159732
20
-35.111149920981376
30
0
10
106.30947921956077
20
-35.185526703924879
30
0
10
106.30901630616152
20
-35.242658264760792
30
0
0
SPLINE
5
365
100
AcDbEntity
8
0
100
AcDbSpline
70
0
71
2
72
6
73
3
74
0
42
0.000000001
43
0.0000000001
44
0.0000000001
40
0
40
0
40
0
40
1
40
1
40
1
10
106.30901630616152
20
-35.242658264760792
30
0
10
106.30847289700273
20
-35.309724401681294
30
0
10
106.32499475274072
20
-35.41667568527636
30
0
0
LINE
5
366
100
AcDbEntity
8
0
100
AcDbLine
10
106.32499475274072
20
-35.41667568527636
30
0
11
105.60076002734445
21
-34.97111941629381
31
0
0
SPLINE
5
367
100
AcDbEntity
8
0
100
AcDbSpline
70
0
71
2
72
6
73
3
74
0
42
0.000000001
43
0.0000000001
44
0.0000000001
40
0
40
0
40
0
40
1
40
1
40
1
10
105.60076002734446
20
-34.97111941629381
30
0
10
105.2200833962432
20
-34.739496088794667
30
0
10
105.09836993853482
20
-34.73850989500589
30
0
0
SPLINE
5
368
100
AcDbEntity
8
0
100
AcDbSpline
70
0
71
2
72
6
73
3
74
0
42
0.000000001
43
0.0000000001
44
0.0000000001
40
0
40
0
40
0
40
1
40
1
40
1
10
105.09836993853482
20
-34.73850989500589
30
0
10
104.98162436489559
20
-34.737563953926255
30
0
10
104.98083849292752
20
-34.834554216530904
30
0
0
SPLINE
5
369
100
AcDbEntity
8
0
100
AcDbSpline
70
0
71
2
72
6
73
3
74
0
42
0.000000001
43
0.0000000001
44
0.0000000001
40
0
40
0
40
0
40
1
40
1
40
1
10
104.98083849292752
20
-34.834554216530904
30
0
10
104.98003217345244
20
-34.934068056957855
30
0
10
105.20588924627653
20
-35.154810479519412
30
0
0
SPLINE
5
370
100
AcDbEntity
8
0
100
AcDbSpline
70
0
71
2
72
6
73
3
74
0
42
0.000000001
43
0.0000000001
44
0.0000000001
40
0
40
0
40
0
40
1
40
1
40
1
10
105.20588924627653
20
-35.154810479519412
30
0
10
105.4317463191006
20
-35.375552902080962
30
0
10
105.76330470750284
20
-35.604603795965978
30
0
0
SPLINE
5
371
100
AcDbEntity
8
0
100
AcDbSpline
70
0
71
2
72
6
73
3
74
0
42
0.000000001
43
0.0000000001
44
0.0000000001
40
0
40
0
40
0
40
1
40
1
40
1
10
105.76330470750284
20
-35.604603795965978
30
0
10
105.78802335382639
20
-35.619747455881324
30
0
10
105.78792271963884
20
-35.63216746406772
30
0
0
SPLINE
5
372
100
AcDbEntity
8
0
100
AcDbSpline
70
0
71
2
72
6
73
3
74
0
42
0.000000001
43
0.0000000001
44
0.0000000001
40
0
40
0
40
0
40
1
40
1
40
1
10
105.78792271963884
20
-35.63216746406772
30
0
10
105.78780195668203
20
-35.64707171230215
30
0
10
105.77289800646106
20
-35.646950951760026
30
0
0
SPLINE
5
373
100
AcDbEntity
8
0
100
AcDbSpline
70
0
71
2
72
6
73
3
74
0
42
0.000000001
43
0.0000000001
44
0.0000000001
40
0
40
0
40
0
40
1
40
1
40
1
10
106.18953658304139
20
-34.965953608677438
30
0
10
106.31125033876323
20
-34.966939804880894
30
0
10
106.31215602713371
20
-34.855162115310875
30
0
0
SPLINE
5
374
100
AcDbEntity
8
0
100
AcDbSpline
70
0
71
2
72
6
73
3
74
0
42
0.000000001
43
0.0000000001
44
0.0000000001
40
0
40
0
40
0
40
1
40
1
40
1
10
106.31215602713371
20
-34.855162115310875
30
0
10
106.3140076614132
20
-34.626638256074756
30
0
10
105.86990549875041
20
-34.251665718986658
30
0
0
SPLINE
5
375
100
AcDbEntity
8
0
100
AcDbSpline
70
0
71
2
72
6
73
3
74
0
42
0.000000001
43
0.0000000001
44
0.0000000001
40
0
40
0
40
0
40
1
40
1
40
1
10
105.86990549875041
20
-34.251665718986658
30
0
10
105.42580334574636
20
-33.876691989844801
30
0
10
105.15008488586645
20
-33.874457957243102
30
0
0
SPLINE
5
376
100
AcDbEntity
8
0
100
AcDbSpline
70
0
71
2
72
6
73
3
74
0
42
0.000000001
43
0.0000000001
44
0.0000000001
40
0
40
0
40
0
40
1
40
1
40
1
10
105.15008488586645
20
-33.874457957243102
30
0
10
104.9886283556046
20
-33.873149741781148
30
0
10
104.98746102220998
20
-34.017218975814295
30
0
0
SPLINE
5
377
100
AcDbEntity
8
0
100
AcDbSpline
70
0
71
2
72
6
73
3
74
0
42
0.000000001
43
0.0000000001
44
0.0000000001
40
0
40
0
40
0
40
1
40
1
40
1
10
104.98746102220998
20
-34.017218975814295
30
0
10
104.98607230132974
20
-34.188611274214495
30
0
10
105.5514753205661
20
-34.61549215786097
30
0
0
SPLINE
5
378
100
AcDbEntity
8
0
100
AcDbSpline
70
0
71
2
72
6
73
3
74
0
42
0.000000001
43
0.0000000001
44
0.0000000001
40
0
40
0
40
0
40
1
40
1
40
1
10
105.5514753205661
20
-34.61549215786097
30
0
10
106.01566034260659
20
-34.964544761442617
30
0
10
106.18953658304139
20
-34.965953608677438
30
0
0
SPLINE
5
379
100
AcDbEntity
8
0
100
AcDbSpline
70
0
71
2
72
6
73
3
74
0
42
0.000000001
43
0.0000000001
44
0.0000000001
40
0
40
0
40
0
40
1
40
1
40
1
10
105.76138569301015
20
-37.067770563760988
30
0
10
105.74143667323865
20
-37.067608925107706
30
0
10
105.58068478259018
20
-36.917026454564933
30
0
0
SPLINE
5
380
100
AcDbEntity
8
0
100
AcDbSpline
70
0
71
2
72
6
73
3
74
0
42
0.000000001
43
0.0000000001
44
0.0000000001
40
0
40
0
40
0
40
1
40
1
40
1
10
105.58068478259018
20
-36.917026454564933
30
0
10
105.37290569650909
20
-36.726200431414682
30
0
10
105.37425668077637
20
-36.559465487077659
30
0
0
SPLINE
5
381
100
AcDbEntity
8
0
100
AcDbSpline
70
0
71
2
72
6
73
3
74
0
42
0.000000001
43
0.0000000001
44
0.0000000001
40
0
40
0
40
0
40
1
40
1
40
1
10
105.37425668077637
20
-36.559465487077659
30
0
10
105.37578911372846
20
-36.370336620695369
30
0
10
105.59437660879931
20
-36.372107744727195
30
0
0
SPLINE
5
382
100
AcDbEntity
8
0
100
AcDbSpline
70
0
71
2
72
6
73
3
74
0
42
0.000000001
43
0.0000000001
44
0.0000000001
40
0
40
0
40
0
40
1
40
1
40
1
10
105.59437660879931
20
-36.372107744727195
30
0
10
105.66392728378131
20
-36.372671285069927
30
0
10
105.77049557302726
20
-36.40334402514636
30
0
0
SPLINE
5
383
100
AcDbEntity
8
0
100
AcDbSpline
70
0
71
2
72
6
73
3
74
0
42
0.000000001
43
0.0000000001
44
0.0000000001
40
0
40
0
40
0
40
1
40
1
40
1
10
105.77049557302726
20
-36.40334402514636
30
0
10
105.63514643069351
20
-36.245747831010597
30
0
10
105.50180795459703
20
-36.146545441674654
30
0
0
SPLINE
5
384
100
AcDbEntity
8
0
100
AcDbSpline
70
0
71
2
72
6
73
3
74
0
42
0.000000001
43
0.0000000001
44
0.0000000001
40
0
40
0
40
0
40
1
40
1
40
1
10
105.50180795459703
20
-36.146545441674654
30
0
10
105.36846978617271
20
-36.047341862699639
30
0
10
104.95808647518518
20
-35.803058202812977
30
0
0
SPLINE
5
385
100
AcDbEntity
8
0
100
AcDbSpline
70
0
71
2
72
6
73
3
74
0
42
0.000000001
43
0.0000000001
44
0.0000000001
40
0
40
0
40
0
40
1
40
1
40
1
10
104.95808647518518
20
-35.803058202812977
30
0
10
104.96908894253065
20
-35.671489482384523
30
0
10
104.96927008213648
20
-35.649133706059764
30
0
0
SPLINE
5
386
100
AcDbEntity
8
0
100
AcDbSpline
70
0
71
2
72
6
73
3
74
0
42
0.000000001
43
0.0000000001
44
0.0000000001
40
0
40
0
40
0
40
1
40
1
40
1
10
104.96927008213648
20
-35.649133706059764
30
0
10
104.96935058755477
20
-35.639197937921395
30
0
10
104.96056202404178
20
-35.497532438517993
30
0
0
LINE
5
387
100
AcDbEntity
8
0
100
AcDbLine
10
104.96056202404178
20
-35.497532438517993
30
0
11
105.61799166151479
21
-35.910253749049254
31
0
0
SPLINE
5
388
100
AcDbEntity
8
0
100
AcDbSpline
70
0
71
2
72
6
73
3
74
0
42
0.000000001
43
0.0000000001
44
0.0000000001
40
0
40
0
40
0
40
1
40
1
40
1
10
105.61799166151479
20
-35.910253749049261
30
0
10
106.11230630765701
20
-36.219804798747013
30
0
10
106.2315358233308
20
-36.220770866181212
30
0
0
SPLINE
5
389
100
AcDbEntity
8
0
100
AcDbSpline
70
0
71
2
72
6
73
3
74
0
42
0.000000001
43
0.0000000001
44
0.0000000001
40
0
40
0
40
0
40
1
40
1
40
1
10
106.2315358233308
20
-36.220770866181212
30
0
10
106.30108649831278
20
-36.221334406523951
30
0
10
106.30155034860771
20
-36.164087216472758
30
0
0
SPLINE
5
390
100
AcDbEntity
8
0
100
AcDbSpline
70
0
71
2
72
6
73
3
74
0
42
0.000000001
43
0.0000000001
44
0.0000000001
40
0
40
0
40
0
40
1
40
1
40
1
10
106.30155034860771
20
-36.164087216472758
30
0
10
106.30267962665161
20
-36.024714674277057
30
0
10
105.77039209972156
20
-35.6544601533136
30
0
0
SPLINE
5
391
100
AcDbEntity
8
0
100
AcDbSpline
70
0
71
2
72
6
73
3
74
0
42
0.000000001
43
0.0000000001
44
0.0000000001
40
0
40
0
40
0
40
1
40
1
40
1
10
105.77039209972156
20
-35.6544601533136
30
0
10
105.73575932016128
20
-35.631784145981271
30
0
10
105.73590052096634
20
-35.614357511978305
30
0
0
SPLINE
5
392
100
AcDbEntity
8
0
100
AcDbSpline
70
0
71
2
72
6
73
3
74
0
42
0.000000001
43
0.0000000001
44
0.0000000001
40
0
40
0
40
0
40
1
40
1
40
1
10
105.73590052096634
20
-35.614357511978305
30
0
10
105.73846496841922
20
-35.604441870194513
30
0
10
105.75088467859217
20
-35.60454250196738
30
0
0
SPLINE
5
393
100
AcDbEntity
8
0
100
AcDbSpline
70
0
71
2
72
6
73
3
74
0
42
0.000000001
43
0.0000000001
44
0.0000000001
40
0
40
0
40
0
40
1
40
1
40
1
10
105.75088467859217
20
-35.60454250196738
30
0
10
105.76332329975671
20
-35.607127690111312
30
0
10
105.77071474921142
20
-35.614639597265366
30
0
0
LINE
5
394
100
AcDbEntity
8
0
100
AcDbLine
10
105.77071474921142
20
-35.614639597265366
30
0
11
105.83256691630342
21
-35.659932736413722
31
0
0
SPLINE
5
395
100
AcDbEntity
8
0
100
AcDbSpline
70
0
71
2
72
6
73
3
74
0
42
0.000000001
43
0.0000000001
44
0.0000000001
40
0
40
0
40
0
40
1
40
1
40
1
10
105.83256691630342
20
-35.659932736413722
30
0
10
106.33975858484332
20
-36.047216184462414
30
0
10
106.33864974464764
20
-36.184066340889565
30
0
0
SPLINE
5
396
100
AcDbEntity
8
0
100
AcDbSpline
70
0
71
2
72
6
73
3
74
0
42
0.000000001
43
0.0000000001
44
0.0000000001
40
0
40
0
40
0
40
1
40
1
40
1
10
106.33864974464764
20
-36.184066340889565
30
0
10
106.33703711535625
20
-36.383092829689716
30
0
10
106.08119048976653
20
-36.381019810339289
30
0
0
SPLINE
5
397
100
AcDbEntity
8
0
100
AcDbSpline
70
0
71
2
72
6
73
3
74
0
42
0.000000001
43
0.0000000001
44
0.0000000001
40
0
40
0
40
0
40
1
40
1
40
1
10
106.08119048976653
20
-36.381019810339289
30
0
10
105.88992635707615
20
-36.379470076207774
30
0
10
105.57611519054718
20
-36.173230179069584
30
0
0
SPLINE
5
398
100
AcDbEntity
8
0
100
AcDbSpline
70
0
71
2
72
6
73
3
74
0
42
0.000000001
43
0.0000000001
44
0.0000000001
40
0
40
0
40
0
40
1
40
1
40
1
10
105.57611519054718
20
-36.173230179069584
30
0
10
105.72410572855297
20
-36.303603943025834
30
0
10
105.81754958961716
20
-36.421113722111954
30
0
0
SPLINE
5
399
100
AcDbEntity
8
0
100
AcDbSpline
70
0
71
2
72
6
73
3
74
0
42
0.000000001
43
0.0000000001
44
0.0000000001
40
0
40
0
40
0
40
1
40
1
40
1
10
105.81754958961716
20
-36.421113722111954
30
0
10
106.03785651843289
20
-36.517295368254359
30
0
10
106.18575619828104
20
-36.658845825904542
30
0
0
SPLINE
5
400
100
AcDbEntity
8
0
100
AcDbSpline
70
0
71
2
72
6
73
3
74
0
42
0.000000001
43
0.0000000001
44
0.0000000001
40
0
40
0
40
0
40
1
40
1
40
1
10
106.18575619828104
20
-36.658845825904542
30
0
10
106.33365587812918
20
-36.800396283554726
30
0
10
106.33275018975868
20
-36.912173973124752
30
0
0
SPLINE
5
401
100
AcDbEntity
8
0
100
AcDbSpline
70
0
71
2
72
6
73
3
74
0
42
0.000000001
43
0.0000000001
44
0.0000000001
40
0
40
0
40
0
40
1
40
1
40
1
10
106.33275018975868
20
-36.912173973124752
30
0
10
106.33212626552287
20
-36.989177070237382
30
0
10
106.26505983058892
20
-36.9886336586639
30
0
0
SPLINE
5
402
100
AcDbEntity
8
0
100
AcDbSpline
70
0
71
2
72
6
73
3
74
0
42
0.000000001
43
0.0000000001
44
0.0000000001
40
0
40
0
40
0
40
1
40
1
40
1
10
106.26505983058892
20
-36.9886336586639
30
0
10
106.14583031491513
20
-36.987667591229695
30
0
10
105.92755644833943
20
-36.640607503994865
30
0
0
SPLINE
5
403
100
AcDbEntity
8
0
100
AcDbSpline
70
0
71
2
72
6
73
3
74
0
42
0.000000001
43
0.0000000001
44
0.0000000001
40
0
40
0
40
0
40
1
40
1
40
1
10
105.92755644833943
20
-36.640607503994865
30
0
10
105.89322374647169
20
-36.585678411828276
30
0
10
105.82704287113899
20
-36.475841550732795
30
0
0
LINE
5
404
100
AcDbEntity
8
0
100
AcDbLine
10
105.82704287113899
20
-36.475841550732795
30
0
11
105.80244466903451
21
-36.445832980357295
31
0
0
SPLINE
5
405
100
AcDbEntity
8
0
100
AcDbSpline
70
0
71
2
72
6
73
3
74
0
42
0.000000001
43
0.0000000001
44
0.0000000001
40
0
40
0
40
0
40
1
40
1
40
1
10
105.80244466903451
20
-36.445832980357295
30
0
10
105.68846481122328
20
-36.410131381121083
30
0
10
105.61394625217211
20
-36.409527588069196
30
0
0
SPLINE
5
406
100
AcDbEntity
8
0
100
AcDbSpline
70
0
71
2
72
6
73
3
74
0
42
0.000000001
43
0.0000000001
44
0.0000000001
40
0
40
0
40
0
40
1
40
1
40
1
10
105.61394625217211
20
-36.409527588069196
30
0
10
105.40529452523963
20
-36.407836969455673
30
0
10
105.40402404639066
20
-36.564636145654333
30
0
0
SPLINE
5
407
100
AcDbEntity
8
0
100
AcDbSpline
70
0
71
2
72
6
73
3
74
0
42
0.000000001
43
0.0000000001
44
0.0000000001
40
0
40
0
40
0
40
1
40
1
40
1
10
105.40402404639066
20
-36.564636145654333
30
0
10
105.40245135590006
20
-36.758733492132684
30
0
10
105.7221122165852
20
-36.990328557711806
30
0
0
SPLINE
5
408
100
AcDbEntity
8
0
100
AcDbSpline
70
0
71
2
72
6
73
3
74
0
42
0.000000001
43
0.0000000001
44
0.0000000001
40
0
40
0
40
0
40
1
40
1
40
1
10
105.7221122165852
20
-36.990328557711806
30
0
10
105.77651134945448
20
-37.040528922161783
30
0
10
105.77641040618794
20
-37.052987076068682
30
0
0
SPLINE
5
409
100
AcDbEntity
8
0
100
AcDbSpline
70
0
71
2
72
6
73
3
74
0
42
0.000000001
43
0.0000000001
44
0.0000000001
40
0
40
0
40
0
40
1
40
1
40
1
10
105.77641040618794
20
-37.052987076068682
30
0
10
105.77628964323114
20
-37.067891324303105
30
0
10
105.76138569301015
20
-37.067770563760988
30
0
0
SPLINE
5
410
100
AcDbEntity
8
0
100
AcDbSpline
70
0
71
2
72
6
73
3
74
0
42
0.000000001
43
0.0000000001
44
0.0000000001
40
0
40
0
40
0
40
1
40
1
40
1
10
105.75197523094377
20
-38.535803713121219
30
0
10
105.7123483836325
20
-38.535482633173089
30
0
10
105.56744940163333
20
-38.387629844271672
30
0
0
SPLINE
5
411
100
AcDbEntity
8
0
100
AcDbSpline
70
0
71
2
72
6
73
3
74
0
42
0.000000001
43
0.0000000001
44
0.0000000001
40
0
40
0
40
0
40
1
40
1
40
1
10
105.56744940163333
20
-38.387629844271672
30
0
10
105.35129409281645
20
-38.167121008253197
30
0
10
105.35278439443864
20
-37.983191880397548
30
0
0
SPLINE
5
412
100
AcDbEntity
8
0
100
AcDbSpline
70
0
71
2
72
6
73
3
74
0
42
0.000000001
43
0.0000000001
44
0.0000000001
40
0
40
0
40
0
40
1
40
1
40
1
10
105.35278439443864
20
-37.983191880397548
30
0
10
105.35340893683244
20
-37.906112491843899
30
0
10
105.38369959249501
20
-37.846700061494325
30
0
0
SPLINE
5
413
100
AcDbEntity
8
0
100
AcDbSpline
70
0
71
2
72
6
73
3
74
0
42
0.000000001
43
0.0000000001
44
0.0000000001
40
0
40
0
40
0
40
1
40
1
40
1
10
105.38369959249501
20
-37.846700061494325
30
0
10
104.92185951387185
20
-37.514822430011606
30
0
10
104.92419606411119
20
-37.226451511460972
30
0
0
SPLINE
5
414
100
AcDbEntity
8
0
100
AcDbSpline
70
0
71
2
72
6
73
3
74
0
42
0.000000001
43
0.0000000001
44
0.0000000001
40
0
40
0
40
0
40
1
40
1
40
1
10
104.92419606411119
20
-37.226451511460972
30
0
10
104.92540459194001
20
-37.077298168116485
30
0
10
105.04921617359517
20
-36.972648661291394
30
0
0
SPLINE
5
415
100
AcDbEntity
8
0
100
AcDbSpline
70
0
71
2
72
6
73
3
74
0
42
0.000000001
43
0.0000000001
44
0.0000000001
40
0
40
0
40
0
40
1
40
1
40
1
10
105.04921617359517
20
-36.972648661291394
30
0
10
105.17302775525036
20
-36.867999154466311
30
0
10
105.344420351664
20
-36.869387877761241
30
0
0
SPLINE
5
416
100
AcDbEntity
8
0
100
AcDbSpline
70
0
71
2
72
6
73
3
74
0
42
0.000000001
43
0.0000000001
44
0.0000000001
40
0
40
0
40
0
40
1
40
1
40
1
10
105.344420351664
20
-36.869387877761241
30
0
10
105.72694861704474
20
-36.872487346024272
30
0
10
106.07808768391962
20
-37.377123501040295
30
0
0
SPLINE
5
417
100
AcDbEntity
8
0
100
AcDbSpline
70
0
71
2
72
6
73
3
74
0
42
0.000000001
43
0.0000000001
44
0.0000000001
40
0
40
0
40
0
40
1
40
1
40
1
10
106.07808768391962
20
-37.377123501040295
30
0
10
106.32610877627482
20
-37.731876635035022
30
0
10
106.32425714199533
20
-37.960400494271127
30
0
0
SPLINE
5
418
100
AcDbEntity
8
0
100
AcDbSpline
70
0
71
2
72
6
73
3
74
0
42
0.000000001
43
0.0000000001
44
0.0000000001
40
0
40
0
40
0
40
1
40
1
40
1
10
106.32425714199533
20
-37.960400494271127
30
0
10
106.32252627067265
20
-38.174020105272817
30
0
10
106.09400270945
20
-38.172168473408021
30
0
0
SPLINE
5
419
100
AcDbEntity
8
0
100
AcDbSpline
70
0
71
2
72
6
73
3
74
0
42
0.000000001
43
0.0000000001
44
0.0000000001
40
0
40
0
40
0
40
1
40
1
40
1
10
106.09400270945
20
-38.172168473408021
30
0
10
105.80834848143172
20
-38.169853935388034
30
0
10
105.40838398075104
20
-37.866034980035728
30
0
0
SPLINE
5
420
100
AcDbEntity
8
0
100
AcDbSpline
70
0
71
2
72
6
73
3
74
0
42
0.000000001
43
0.0000000001
44
0.0000000001
40
0
40
0
40
0
40
1
40
1
40
1
10
105.40838398075104
20
-37.866034980035728
30
0
10
105.37817414924449
20
-37.915472304472658
30
0
10
105.37767098796547
20
-37.977571153350873
30
0
0
SPLINE
5
421
100
AcDbEntity
8
0
100
AcDbSpline
70
0
71
2
72
6
73
3
74
0
42
0.000000001
43
0.0000000001
44
0.0000000001
40
0
40
0
40
0
40
1
40
1
40
1
10
105.37767098796547
20
-37.977571153350873
30
0
10
105.37676529959499
20
-38.089348842920892
30
0
10
105.47953116129122
20
-38.239616453826258
30
0
0
SPLINE
5
422
100
AcDbEntity
8
0
100
AcDbSpline
70
0
71
2
72
6
73
3
74
0
42
0.000000001
43
0.0000000001
44
0.0000000001
40
0
40
0
40
0
40
1
40
1
40
1
10
105.47953116129122
20
-38.239616453826258
30
0
10
105.58229702298746
20
-38.389884064731632
30
0
10
105.72761707681751
20
-38.485769269710808
30
0
0
SPLINE
5
423
100
AcDbEntity
8
0
100
AcDbSpline
70
0
71
2
72
6
73
3
74
0
42
0.000000001
43
0.0000000001
44
0.0000000001
40
0
40
0
40
0
40
1
40
1
40
1
10
105.72761707681751
20
-38.485769269710808
30
0
10
105.76209245742569
20
-38.513489104440481
30
0
10
105.76199150450043
20
-38.525948450401152
30
0
0
SPLINE
5
424
100
AcDbEntity
8
0
100
AcDbSpline
70
0
71
2
72
6
73
3
74
0
42
0.000000001
43
0.0000000001
44
0.0000000001
40
0
40
0
40
0
40
1
40
1
40
1
10
105.76199150450043
20
-38.525948450401152
30
0
10
105.76191099908215
20
-38.535884218539508
30
0
10
105.75197523094377
20
-38.535803713121219
30
0
0
SPLINE
5
425
100
AcDbEntity
8
0
100
AcDbSpline
70
0
71
2
72
6
73
3
74
0
42
0.000000001
43
0.0000000001
44
0.0000000001
40
0
40
0
40
0
40
1
40
1
40
1
10
106.08933672794345
20
-38.134868196139692
30
0
10
106.29053692678562
20
-38.136498438104177
30
0
10
106.29200615308417
20
-37.955170371565615
30
0
0
SPLINE
5
426
100
AcDbEntity
8
0
100
AcDbSpline
70
0
71
2
72
6
73
3
74
0
42
0.000000001
43
0.0000000001
44
0.0000000001
40
0
40
0
40
0
40
1
40
1
40
1
10
106.29200615308417
20
-37.955170371565615
30
0
10
106.29383765859438
20
-37.729130752377529
30
0
10
105.86426681420156
20
-37.400231454036643
30
0
0
SPLINE
5
427
100
AcDbEntity
8
0
100
AcDbSpline
70
0
71
2
72
6
73
3
74
0
42
0.000000001
43
0.0000000001
44
0.0000000001
40
0
40
0
40
0
40
1
40
1
40
1
10
105.86426681420156
20
-37.400231454036643
30
0
10
105.43469626782218
20
-37.071332158110422
30
0
10
105.13910627166554
20
-37.068937114672153
30
0
0
SPLINE
5
428
100
AcDbEntity
8
0
100
AcDbSpline
70
0
71
2
72
6
73
3
74
0
42
0.000000001
43
0.0000000001
44
0.0000000001
40
0
40
0
40
0
40
1
40
1
40
1
10
105.13910627166554
20
-37.068937114672153
30
0
10
104.9677136752519
20
-37.067548391377223
30
0
10
104.9663853310207
20
-37.231489161687094
30
0
0
SPLINE
5
429
100
AcDbEntity
8
0
100
AcDbSpline
70
0
71
2
72
6
73
3
74
0
42
0.000000001
43
0.0000000001
44
0.0000000001
40
0
40
0
40
0
40
1
40
1
40
1
10
104.9663853310207
20
-37.231489161687094
30
0
10
104.96421167506804
20
-37.499756093476655
30
0
10
105.40377836623483
20
-37.821284366730829
30
0
0
SPLINE
5
430
100
AcDbEntity
8
0
100
AcDbSpline
70
0
71
2
72
6
73
3
74
0
42
0.000000001
43
0.0000000001
44
0.0000000001
40
0
40
0
40
0
40
1
40
1
40
1
10
105.40377836623483
20
-37.821284366730829
30
0
10
105.48384847605249
20
-37.749893795475288
30
0
10
105.56830280324201
20
-37.750578093945464
30
0
0
SPLINE
5
431
100
AcDbEntity
8
0
100
AcDbSpline
70
0
71
2
72
6
73
3
74
0
42
0.000000001
43
0.0000000001
44
0.0000000001
40
0
40
0
40
0
40
1
40
1
40
1
10
105.56830280324201
20
-37.750578093945464
30
0
10
105.69001626095042
20
-37.75156428773424
30
0
10
105.81839691736232
20
-37.849484304337018
30
0
0
SPLINE
5
432
100
AcDbEntity
8
0
100
AcDbSpline
70
0
71
2
72
6
73
3
74
0
42
0.000000001
43
0.0000000001
44
0.0000000001
40
0
40
0
40
0
40
1
40
1
40
1
10
105.81839691736232
20
-37.849484304337018
30
0
10
105.94677726610207
20
-37.947405510578882
30
0
10
105.94603258856819
20
-38.039311663872184
30
0
0
SPLINE
5
433
100
AcDbEntity
8
0
100
AcDbSpline
70
0
71
2
72
6
73
3
74
0
42
0.000000001
43
0.0000000001
44
0.0000000001
40
0
40
0
40
0
40
1
40
1
40
1
10
105.94603258856819
20
-38.039311663872184
30
0
10
105.945710566895
20
-38.079054736425633
30
0
10
105.89591067489167
20
-38.093555263100143
30
0
0
SPLINE
5
434
100
AcDbEntity
8
0
100
AcDbSpline
70
0
71
2
72
6
73
3
74
0
42
0.000000001
43
0.0000000001
44
0.0000000001
40
0
40
0
40
0
40
1
40
1
40
1
10
105.89591067489167
20
-38.093555263100143
30
0
10
105.9825269224426
20
-38.134002760478353
30
0
10
106.08933672794345
20
-38.134868196139692
30
0
0
SPLINE
5
435
100
AcDbEntity
8
0
100
AcDbSpline
70
0
71
2
72
6
73
3
74
0
42
0.000000001
43
0.0000000001
44
0.0000000001
40
0
40
0
40
0
40
1
40
1
40
1
10
105.73654969902607
20
-40.13296397484919
30
0
10
105.67934125072227
20
-40.132500438462628
30
0
10
105.25688638331154
20
-39.768493287422764
30
0
0
SPLINE
5
436
100
AcDbEntity
8
0
100
AcDbSpline
70
0
71
2
72
6
73
3
74
0
42
0.000000001
43
0.0000000001
44
0.0000000001
40
0
40
0
40
0
40
1
40
1
40
1
10
105.25688638331154
20
-39.768493287422764
30
0
10
104.90604014605415
20
-39.46720742549563
30
0
10
104.90745056041604
20
-39.293137774337332
30
0
0
SPLINE
5
437
100
AcDbEntity
8
0
100
AcDbSpline
70
0
71
2
72
6
73
3
74
0
42
0.000000001
43
0.0000000001
44
0.0000000001
40
0
40
0
40
0
40
1
40
1
40
1
10
104.90745056041604
20
-39.293137774337332
30
0
10
104.90833738530938
20
-39.183688165772011
30
0
10
104.99713226222541
20
-39.108564194397992
30
0
0
SPLINE
5
438
100
AcDbEntity
8
0
100
AcDbSpline
70
0
71
2
72
6
73
3
74
0
42
0.000000001
43
0.0000000001
44
0.0000000001
40
0
40
0
40
0
40
1
40
1
40
1
10
104.99713226222541
20
-39.108564194397992
30
0
10
105.08592683146928
20
-39.033441412663052
30
0
10
105.21012423121223
20
-39.034447732806406
30
0
0
SPLINE
5
439
100
AcDbEntity
8
0
100
AcDbSpline
70
0
71
2
72
6
73
3
74
0
42
0.000000001
43
0.0000000001
44
0.0000000001
40
0
40
0
40
0
40
1
40
1
40
1
10
105.21012423121223
20
-39.034447732806406
30
0
10
105.30699826857473
20
-39.035232663049449
30
0
10
105.48008988160927
20
-39.133514954034545
30
0
0
LINE
5
440
100
AcDbEntity
8
0
100
AcDbLine
10
105.48008988160927
20
-39.133514954034545
30
0
11
105.41342567575334
21
-39.083292699354566
31
0
0
SPLINE
5
441
100
AcDbEntity
8
0
100
AcDbSpline
70
0
71
2
72
6
73
3
74
0
42
0.000000001
43
0.0000000001
44
0.0000000001
40
0
40
0
40
0
40
1
40
1
40
1
10
105.41342567575334
20
-39.083292699354573
30
0
10
105.12217155392423
20
-38.852393925449434
30
0
10
105.02367900535916
20
-38.744779659377855
30
0
0
SPLINE
5
442
100
AcDbEntity
8
0
100
AcDbSpline
70
0
71
2
72
6
73
3
74
0
42
0.000000001
43
0.0000000001
44
0.0000000001
40
0
40
0
40
0
40
1
40
1
40
1
10
105.02367900535916
20
-38.744779659377855
30
0
10
104.91284696368467
20
-38.627127798926601
30
0
10
104.9136922657474
20
-38.522802829500677
30
0
0
SPLINE
5
443
100
AcDbEntity
8
0
100
AcDbSpline
70
0
71
2
72
6
73
3
74
0
42
0.000000001
43
0.0000000001
44
0.0000000001
40
0
40
0
40
0
40
1
40
1
40
1
10
104.9136922657474
20
-38.522802829500677
30
0
10
104.91457783500736
20
-38.413508187924911
30
0
10
105.00087806802874
20
-38.339684885768875
30
0
0
SPLINE
5
444
100
AcDbEntity
8
0
100
AcDbSpline
70
0
71
2
72
6
73
3
74
0
42
0.000000001
43
0.0000000001
44
0.0000000001
40
0
40
0
40
0
40
1
40
1
40
1
10
105.00087806802874
20
-38.339684885768875
30
0
10
105.0871780126954
20
-38.265860389144393
30
0
10
105.21137541243839
20
-38.266866709287754
30
0
0
SPLINE
5
445
100
AcDbEntity
8
0
100
AcDbSpline
70
0
71
2
72
6
73
3
74
0
42
0.000000001
43
0.0000000001
44
0.0000000001
40
0
40
0
40
0
40
1
40
1
40
1
10
105.21137541243839
20
-38.266866709287754
30
0
10
105.35544464647153
20
-38.268034042682373
30
0
10
105.54083520672224
20
-38.381321213674759
30
0
0
LINE
5
446
100
AcDbEntity
8
0
100
AcDbLine
10
105.54083520672224
20
-38.381321213674759
30
0
11
106.29726054438065
21
-38.839559133453157
31
0
0
SPLINE
5
447
100
AcDbEntity
8
0
100
AcDbSpline
70
0
71
2
72
6
73
3
74
0
42
0.000000001
43
0.0000000001
44
0.0000000001
40
0
40
0
40
0
40
1
40
1
40
1
10
106.29726054438065
20
-38.839559133453164
30
0
10
106.27918895692581
20
-38.92387168453503
30
0
10
106.27880654894486
20
-38.971067477232573
30
0
0
SPLINE
5
448
100
AcDbEntity
8
0
100
AcDbSpline
70
0
71
2
72
6
73
3
74
0
42
0.000000001
43
0.0000000001
44
0.0000000001
40
0
40
0
40
0
40
1
40
1
40
1
10
106.27880654894486
20
-38.971067477232573
30
0
10
106.27842415062264
20
-39.018262077876358
30
0
10
106.29482525306257
20
-39.140116417652081
30
0
0
LINE
5
449
100
AcDbEntity
8
0
100
AcDbLine
10
106.29482525306257
20
-39.140116417652081
30
0
11
105.3259073802586
21
-38.541046872613926
31
0
0
SPLINE
5
450
100
AcDbEntity
8
0
100
AcDbSpline
70
0
71
2
72
6
73
3
74
0
42
0.000000001
43
0.0000000001
44
0.0000000001
40
0
40
0
40
0
40
1
40
1
40
1
10
105.3259073802586
20
-38.541046872613919
30
0
10
105.17759481092091
20
-38.450417373264891
30
0
10
105.06333317931629
20
-38.449491558539833
30
0
0
SPLINE
5
451
100
AcDbEntity
8
0
100
AcDbSpline
70
0
71
2
72
6
73
3
74
0
42
0.000000001
43
0.0000000001
44
0.0000000001
40
0
40
0
40
0
40
1
40
1
40
1
10
105.06333317931629
20
-38.449491558539833
30
0
10
104.95155548974628
20
-38.448585870169353
30
0
10
104.95079068344312
20
-38.542976263510681
30
0
0
SPLINE
5
452
100
AcDbEntity
8
0
100
AcDbSpline
70
0
71
2
72
6
73
3
74
0
42
0.000000001
43
0.0000000001
44
0.0000000001
40
0
40
0
40
0
40
1
40
1
40
1
10
104.95079068344312
20
-38.542976263510681
30
0
10
104.94875791921652
20
-38.793854707017779
30
0
10
105.88071855440555
20
-39.355363524231919
30
0
0
LINE
5
453
100
AcDbEntity
8
0
100
AcDbLine
10
105.88071855440555
20
-39.355363524231919
30
0
11
106.29108173662381
21
-39.602131424166608
31
0
0
SPLINE
5
454
100
AcDbEntity
8
0
100
AcDbSpline
70
0
71
2
72
6
73
3
74
0
42
0.000000001
43
0.0000000001
44
0.0000000001
40
0
40
0
40
0
40
1
40
1
40
1
10
106.29108173662382
20
-39.602131424166608
30
0
10
106.27307052581801
20
-39.678992447158144
30
0
10
106.27264786995731
20
-39.73115552789799
30
0
0
SPLINE
5
455
100
AcDbEntity
8
0
100
AcDbSpline
70
0
71
2
72
6
73
3
74
0
42
0.000000001
43
0.0000000001
44
0.0000000001
40
0
40
0
40
0
40
1
40
1
40
1
10
106.27264786995731
20
-39.73115552789799
30
0
10
106.27214470867828
20
-39.793254376776197
30
0
10
106.28860618776724
20
-39.907657188461592
30
0
0
LINE
5
456
100
AcDbEntity
8
0
100
AcDbLine
10
106.28860618776724
20
-39.907657188461592
30
0
11
105.64351575504888
21
-39.50497227784156
31
0
0
SPLINE
5
457
100
AcDbEntity
8
0
100
AcDbSpline
70
0
71
2
72
6
73
3
74
0
42
0.000000001
43
0.0000000001
44
0.0000000001
40
0
40
0
40
0
40
1
40
1
40
1
10
105.64351575504888
20
-39.504972277841553
30
0
10
105.18379545579855
20
-39.218058775847268
30
0
10
105.0521462299518
20
-39.216992076640196
30
0
0
SPLINE
5
458
100
AcDbEntity
8
0
100
AcDbSpline
70
0
71
2
72
6
73
3
74
0
42
0.000000001
43
0.0000000001
44
0.0000000001
40
0
40
0
40
0
40
1
40
1
40
1
10
105.0521462299518
20
-39.216992076640196
30
0
10
104.94533642445094
20
-39.216126640978857
30
0
10
104.94450998586537
20
-39.318123529400076
30
0
0
SPLINE
5
459
100
AcDbEntity
8
0
100
AcDbSpline
70
0
71
2
72
6
73
3
74
0
42
0.000000001
43
0.0000000001
44
0.0000000001
40
0
40
0
40
0
40
1
40
1
40
1
10
104.94450998586537
20
-39.318123529400076
30
0
10
104.94289767531168
20
-39.517110680425951
30
0
10
105.56619540220034
20
-39.969922216755464
30
0
0
LINE
5
460
100
AcDbEntity
8
0
100
AcDbLine
10
105.56619540220034
20
-39.969922216755464
30
0
11
105.67253561157267
21
-40.047907636792807
31
0
0
LINE
5
461
100
AcDbEntity
8
0
100
AcDbLine
10
105.67253561157267
20
-40.047907636792807
30
0
11
105.72693626163989
21
-40.093102251156942
31
0
0
SPLINE
5
462
100
AcDbEntity
8
0
100
AcDbSpline
70
0
71
2
72
6
73
3
74
0
42
0.000000001
43
0.0000000001
44
0.0000000001
40
0
40
0
40
0
40
1
40
1
40
1
10
105.72693626163989
20
-40.093102251156942
30
0
10
105.75167503673269
20
-40.105761671024254
30
0
10
105.75157440254515
20
-40.11818167921065
30
0
0
SPLINE
5
463
100
AcDbEntity
8
0
100
AcDbSpline
70
0
71
2
72
6
73
3
74
0
42
0.000000001
43
0.0000000001
44
0.0000000001
40
0
40
0
40
0
40
1
40
1
40
1
10
105.75157440254515
20
-40.11818167921065
30
0
10
105.75145364924707
20
-40.133084735391321
30
0
10
105.73654969902607
20
-40.13296397484919
30
0
0
SPLINE
5
464
100
AcDbEntity
8
0
100
AcDbSpline
70
0
71
2
72
6
73
3
74
0
42
0.000000001
43
0.0000000001
44
0.0000000001
40
0
40
0
40
0
40
1
40
1
40
1
10
105.24644545830689
20
-40.530176285300641
30
0
10
105.13424071547526
20
-40.529267136694273
30
0
10
105.03281299132615
20
-40.427004411416625
30
0
0
SPLINE
5
465
100
AcDbEntity
8
0
100
AcDbSpline
70
0
71
2
72
6
73
3
74
0
42
0.000000001
43
0.0000000001
44
0.0000000001
40
0
40
0
40
0
40
1
40
1
40
1
10
105.03281299132615
20
-40.427004411416625
30
0
10
104.9313855651905
20
-40.324741688553665
30
0
10
104.93224754785999
20
-40.218358042274112
30
0
0
SPLINE
5
466
100
AcDbEntity
8
0
100
AcDbSpline
70
0
71
2
72
6
73
3
74
0
42
0.000000001
43
0.0000000001
44
0.0000000001
40
0
40
0
40
0
40
1
40
1
40
1
10
104.93224754785999
20
-40.218358042274112
30
0
10
104.93312304307659
20
-40.110306712776136
30
0
10
105.04614255465719
20
-40.111222463116576
30
0
0
SPLINE
5
467
100
AcDbEntity
8
0
100
AcDbSpline
70
0
71
2
72
6
73
3
74
0
42
0.000000001
43
0.0000000001
44
0.0000000001
40
0
40
0
40
0
40
1
40
1
40
1
10
105.04614255465719
20
-40.111222463116576
30
0
10
105.14755772084069
20
-40.112044188247552
30
0
10
105.24812352378417
20
-40.220082962194603
30
0
0
SPLINE
5
468
100
AcDbEntity
8
0
100
AcDbSpline
70
0
71
2
72
6
73
3
74
0
42
0.000000001
43
0.0000000001
44
0.0000000001
40
0
40
0
40
0
40
1
40
1
40
1
10
105.24812352378417
20
-40.220082962194603
30
0
10
105.34868901905551
20
-40.328122925780725
30
0
10
105.34782013040231
20
-40.435358890502862
30
0
0
SPLINE
5
469
100
AcDbEntity
8
0
100
AcDbSpline
70
0
71
2
72
6
73
3
74
0
42
0.000000001
43
0.0000000001
44
0.0000000001
40
0
40
0
40
0
40
1
40
1
40
1
10
105.34782013040231
20
-40.435358890502862
30
0
10
105.34704525971455
20
-40.530991403868207
30
0
10
105.24644545830689
20
-40.530176285300641
30
0
0
SPLINE
5
470
100
AcDbEntity
8
0
100
AcDbSpline
70
0
71
2
72
6
73
3
74
0
42
0.000000001
43
0.0000000001
44
0.0000000001
40
0
40
0
40
0
40
1
40
1
40
1
10
108.15793214131094
20
-45.88218811420834
30
0
10
108.03870262563714
20
-45.881222046774127
30
0
10
107.81584732089676
20
-45.639700050303809
30
0
0
SPLINE
5
471
100
AcDbEntity
8
0
100
AcDbSpline
70
0
71
2
72
6
73
3
74
0
42
0.000000001
43
0.0000000001
44
0.0000000001
40
0
40
0
40
0
40
1
40
1
40
1
10
107.81584732089676
20
-45.639700050303809
30
0
10
107.59299201615639
20
-45.39817805383349
30
0
10
107.38962180178822
20
-45.05123872472609
30
0
0
SPLINE
5
472
100
AcDbEntity
8
0
100
AcDbSpline
70
0
71
2
72
6
73
3
74
0
42
0.000000001
43
0.0000000001
44
0.0000000001
40
0
40
0
40
0
40
1
40
1
40
1
10
107.38962180178822
20
-45.05123872472609
30
0
10
107.2483990870148
20
-45.005379967451205
30
0
10
106.87651101942652
20
-44.915422139355471
30
0
0
SPLINE
5
473
100
AcDbEntity
8
0
100
AcDbSpline
70
0
71
2
72
6
73
3
74
0
42
0.000000001
43
0.0000000001
44
0.0000000001
40
0
40
0
40
0
40
1
40
1
40
1
10
106.87651101942652
20
-44.915422139355471
30
0
10
106.29390992907318
20
-44.771591677605549
30
0
10
106.05018682988266
20
-44.652864248031037
30
0
0
SPLINE
5
474
100
AcDbEntity
8
0
100
AcDbSpline
70
0
71
2
72
6
73
3
74
0
42
0.000000001
43
0.0000000001
44
0.0000000001
40
0
40
0
40
0
40
1
40
1
40
1
10
106.05018682988266
20
-44.652864248031037
30
0
10
105.80646373069214
20
-44.534136818456531
30
0
10
105.5552744050762
20
-44.263816991256434
30
0
0
SPLINE
5
475
100
AcDbEntity
8
0
100
AcDbSpline
70
0
71
2
72
6
73
3
74
0
42
0.000000001
43
0.0000000001
44
0.0000000001
40
0
40
0
40
0
40
1
40
1
40
1
10
105.5552744050762
20
-44.263816991256434
30
0
10
104.82878887038095
20
-43.482886208800906
30
0
10
104.83657778650365
20
-42.521598555320203
30
0
0
SPLINE
5
476
100
AcDbEntity
8
0
100
AcDbSpline
70
0
71
2
72
6
73
3
74
0
42
0.000000001
43
0.0000000001
44
0.0000000001
40
0
40
0
40
0
40
1
40
1
40
1
10
104.83657778650365
20
-42.521598555320203
30
0
10
104.83881181910533
20
-42.245880095440299
30
0
10
104.93242872461079
20
-42.035488209966786
30
0
0
SPLINE
5
477
100
AcDbEntity
8
0
100
AcDbSpline
70
0
71
2
72
6
73
3
74
0
42
0.000000001
43
0.0000000001
44
0.0000000001
40
0
40
0
40
0
40
1
40
1
40
1
10
104.93242872461079
20
-42.035488209966786
30
0
10
104.70450212589841
20
-41.916888772899839
30
0
10
104.53536042500815
20
-41.915518287680023
30
0
0
SPLINE
5
478
100
AcDbEntity
8
0
100
AcDbSpline
70
0
71
2
72
6
73
3
74
0
42
0.000000001
43
0.0000000001
44
0.0000000001
40
0
40
0
40
0
40
1
40
1
40
1
10
104.53536042500815
20
-41.915518287680023
30
0
10
104.32139154225308
20
-41.91378458635284
30
0
10
104.14111806246706
20
-42.05516039581552
30
0
0
SPLINE
5
479
100
AcDbEntity
8
0
100
AcDbSpline
70
0
71
2
72
6
73
3
74
0
42
0.000000001
43
0.0000000001
44
0.0000000001
40
0
40
0
40
0
40
1
40
1
40
1
10
104.14111806246706
20
-42.05516039581552
30
0
10
104.12609365696142
20
-42.06994269386874
30
0
10
104.1061833789373
20
-42.069781369123795
30
0
0
SPLINE
5
480
100
AcDbEntity
8
0
100
AcDbSpline
70
0
71
2
72
6
73
3
74
0
42
0.000000001
43
0.0000000001
44
0.0000000001
40
0
40
0
40
0
40
1
40
1
40
1
10
104.1061833789373
20
-42.069781369123795
30
0
10
104.08631184266058
20
-42.06962035828721
30
0
10
104.08651310137697
20
-42.044781533968191
30
0
0
SPLINE
5
481
100
AcDbEntity
8
0
100
AcDbSpline
70
0
71
2
72
6
73
3
74
0
42
0.000000001
43
0.0000000001
44
0.0000000001
40
0
40
0
40
0
40
1
40
1
40
1
10
104.08651310137697
20
-42.044781533968191
30
0
10
104.08697915385969
20
-41.987262555658376
30
0
10
104.24173434590938
20
-41.922260159183452
30
0
0
SPLINE
5
482
100
AcDbEntity
8
0
100
AcDbSpline
70
0
71
2
72
6
73
3
74
0
42
0.000000001
43
0.0000000001
44
0.0000000001
40
0
40
0
40
0
40
1
40
1
40
1
10
104.24173434590938
20
-41.922260159183452
30
0
10
104.39648953795908
20
-41.857257762708535
30
0
10
104.53081671259082
20
-41.85834616022661
30
0
0
SPLINE
5
483
100
AcDbEntity
8
0
100
AcDbSpline
70
0
71
2
72
6
73
3
74
0
42
0.000000001
43
0.0000000001
44
0.0000000001
40
0
40
0
40
0
40
1
40
1
40
1
10
104.53081671259082
20
-41.85834616022661
30
0
10
104.72483657557439
20
-41.859918222900504
30
0
10
104.9576505432789
20
-41.988494872868728
30
0
0
SPLINE
5
484
100
AcDbEntity
8
0
100
AcDbSpline
70
0
71
2
72
6
73
3
74
0
42
0.000000001
43
0.0000000001
44
0.0000000001
40
0
40
0
40
0
40
1
40
1
40
1
10
104.9576505432789
20
-41.988494872868728
30
0
10
105.23012359723427
20
-41.471523151110041
30
0
10
105.88340243842573
20
-41.476816399265616
30
0
0
SPLINE
5
485
100
AcDbEntity
8
0
100
AcDbSpline
70
0
71
2
72
6
73
3
74
0
42
0.000000001
43
0.0000000001
44
0.0000000001
40
0
40
0
40
0
40
1
40
1
40
1
10
105.88340243842573
20
-41.476816399265616
30
0
10
106.30318983432532
20
-41.480217762847253
30
0
10
106.71599670103967
20
-41.73197426923258
30
0
0
SPLINE
5
486
100
AcDbEntity
8
0
100
AcDbSpline
70
0
71
2
72
6
73
3
74
0
42
0.000000001
43
0.0000000001
44
0.0000000001
40
0
40
0
40
0
40
1
40
1
40
1
10
106.71599670103967
20
-41.73197426923258
30
0
10
107.12880357741275
20
-41.983729583564141
30
0
10
107.45801011985048
20
-42.436021523063829
30
0
0
SPLINE
5
487
100
AcDbEntity
8
0
100
AcDbSpline
70
0
71
2
72
6
73
3
74
0
42
0.000000001
43
0.0000000001
44
0.0000000001
40
0
40
0
40
0
40
1
40
1
40
1
10
107.45801011985048
20
-42.436021523063829
30
0
10
107.87563225297544
20
-43.013235709084583
30
0
10
107.87108368235374
20
-43.574608396982732
30
0
0
SPLINE
5
488
100
AcDbEntity
8
0
100
AcDbSpline
70
0
71
2
72
6
73
3
74
0
42
0.000000001
43
0.0000000001
44
0.0000000001
40
0
40
0
40
0
40
1
40
1
40
1
10
107.87108368235374
20
-43.574608396982732
30
0
10
107.86860814315588
20
-43.880132969223951
30
0
10
107.69575636551089
20
-44.058832576551112
30
0
0
SPLINE
5
489
100
AcDbEntity
8
0
100
AcDbSpline
70
0
71
2
72
6
73
3
74
0
42
0.000000001
43
0.0000000001
44
0.0000000001
40
0
40
0
40
0
40
1
40
1
40
1
10
107.69575636551089
20
-44.058832576551112
30
0
10
107.52290460718334
20
-44.237529799770726
30
0
10
107.2297985530613
20
-44.23515488268702
30
0
0
SPLINE
5
490
100
AcDbEntity
8
0
100
AcDbSpline
70
0
71
2
72
6
73
3
74
0
42
0.000000001
43
0.0000000001
44
0.0000000001
40
0
40
0
40
0
40
1
40
1
40
1
10
107.2297985530613
20
-44.23515488268702
30
0
10
107.07330990686864
20
-44.233886919934221
30
0
10
106.90476353170126
20
-44.187806770344338
30
0
0
SPLINE
5
491
100
AcDbEntity
8
0
100
AcDbSpline
70
0
71
2
72
6
73
3
74
0
42
0.000000001
43
0.0000000001
44
0.0000000001
40
0
40
0
40
0
40
1
40
1
40
1
10
106.90476353170126
20
-44.187806770344338
30
0
10
107.14523186575171
20
-44.554919531047062
30
0
10
107.31186623964928
20
-44.836973875909614
30
0
0
SPLINE
5
492
100
AcDbEntity
8
0
100
AcDbSpline
70
0
71
2
72
6
73
3
74
0
42
0.000000001
43
0.0000000001
44
0.0000000001
40
0
40
0
40
0
40
1
40
1
40
1
10
107.31186623964928
20
-44.836973875909614
30
0
10
107.70039723360449
20
-45.018977549726891
30
0
10
107.97888979283167
20
-45.292003006875333
30
0
0
SPLINE
5
493
100
AcDbEntity
8
0
100
AcDbSpline
70
0
71
2
72
6
73
3
74
0
42
0.000000001
43
0.0000000001
44
0.0000000001
40
0
40
0
40
0
40
1
40
1
40
1
10
107.97888979283167
20
-45.292003006875333
30
0
10
108.25738235205883
20
-45.565028464023776
30
0
10
108.25575211492371
20
-45.766228066839062
30
0
0
SPLINE
5
494
100
AcDbEntity
8
0
100
AcDbSpline
70
0
71
2
72
6
73
3
74
0
42
0.000000001
43
0.0000000001
44
0.0000000001
40
0
40
0
40
0
40
1
40
1
40
1
10
108.25575211492371
20
-45.766228066839062
30
0
10
108.25480617867342
20
-45.882973044451383
30
0
10
108.15793214131094
20
-45.88218811420834
30
0
0
SPLINE
5
495
100
AcDbEntity
8
0
100
AcDbSpline
70
0
71
2
72
6
73
3
74
0
42
0.000000001
43
0.0000000001
44
0.0000000001
40
0
40
0
40
0
40
1
40
1
40
1
10
108.15334664590526
20
-45.83495445290918
30
0
10
108.21296155274888
20
-45.835437487833616
30
0
10
108.21352510033566
20
-45.765885918811307
30
0
0
SPLINE
5
496
100
AcDbEntity
8
0
100
AcDbSpline
70
0
71
2
72
6
73
3
74
0
42
0.000000001
43
0.0000000001
44
0.0000000001
40
0
40
0
40
0
40
1
40
1
40
1
10
108.21352510033566
20
-45.765885918811307
30
0
10
108.21487357333612
20
-45.599460908453402
30
0
10
107.98676862039189
20
-45.392673251731317
30
0
0
SPLINE
5
497
100
AcDbEntity
8
0
100
AcDbSpline
70
0
71
2
72
6
73
3
74
0
42
0.000000001
43
0.0000000001
44
0.0000000001
40
0
40
0
40
0
40
1
40
1
40
1
10
107.98676862039189
20
-45.392673251731317
30
0
10
107.75866366744765
20
-45.185885595009239
30
0
10
107.45155963982984
20
-45.071613422281835
30
0
0
SPLINE
5
498
100
AcDbEntity
8
0
100
AcDbSpline
70
0
71
2
72
6
73
3
74
0
42
0.000000001
43
0.0000000001
44
0.0000000001
40
0
40
0
40
0
40
1
40
1
40
1
10
107.45155963982984
20
-45.071613422281835
30
0
10
107.65010285219616
20
-45.401125202451382
30
0
10
107.8495618269763
20
-45.617615980973127
30
0
0
SPLINE
5
499
100
AcDbEntity
8
0
100
AcDbSpline
70
0
71
2
72
6
73
3
74
0
42
0.000000001
43
0.0000000001
44
0.0000000001
40
0
40
0
40
0
40
1
40
1
40
1
10
107.8495618269763
20
-45.617615980973127
30
0
10
108.049020782439
20
-45.834109143602419
30
0
10
108.15334664590526
20
-45.83495445290918
30
0
0
LINE
5
500
100
AcDbEntity
8
0
100
AcDbLine
10
106.79369027178537
20
-44.099962216722858
30
0
11
106.68324092644654
21
-43.9351157580425
31
0
0
SPLINE
5
501
100
AcDbEntity
8
0
100
AcDbSpline
70
0
71
2
72
6
73
3
74
0
42
0.000000001
43
0.0000000001
44
0.0000000001
40
0
40
0
40
0
40
1
40
1
40
1
10
106.68324092644654
20
-43.935115758042507
30
0
10
106.04500156876519
20
-42.99343405978896
30
0
10
105.61863951318503
20
-42.575132976972057
30
0
0
SPLINE
5
502
100
AcDbEntity
8
0
100
AcDbSpline
70
0
71
2
72
6
73
3
74
0
42
0.000000001
43
0.0000000001
44
0.0000000001
40
0
40
0
40
0
40
1
40
1
40
1
10
105.61863951318503
20
-42.575132976972057
30
0
10
105.56314717868915
20
-42.679016356236453
30
0
10
105.56218111366962
20
-42.798245573896807
30
0
0
SPLINE
5
503
100
AcDbEntity
8
0
100
AcDbSpline
70
0
71
2
72
6
73
3
74
0
42
0.000000001
43
0.0000000001
44
0.0000000001
40
0
40
0
40
0
40
1
40
1
40
1
10
105.56218111366962
20
-42.798245573896807
30
0
10
105.55936341437061
20
-43.145998650793288
30
0
10
105.92142474118609
20
-43.529001855933885
30
0
0
SPLINE
5
504
100
AcDbEntity
8
0
100
AcDbSpline
70
0
71
2
72
6
73
3
74
0
42
0.000000001
43
0.0000000001
44
0.0000000001
40
0
40
0
40
0
40
1
40
1
40
1
10
105.92142474118609
20
-43.529001855933885
30
0
10
106.28348607766026
20
-43.912003869020722
30
0
10
106.79369027178537
20
-44.099962216722858
30
0
0
SPLINE
5
505
100
AcDbEntity
8
0
100
AcDbSpline
70
0
71
2
72
6
73
3
74
0
42
0.000000001
43
0.0000000001
44
0.0000000001
40
0
40
0
40
0
40
1
40
1
40
1
10
107.24504131131148
20
-44.806624351974804
30
0
10
107.0635838002834
20
-44.51451228879268
30
0
10
106.83288992552129
20
-44.167351567370304
30
0
0
SPLINE
5
506
100
AcDbEntity
8
0
100
AcDbSpline
70
0
71
2
72
6
73
3
74
0
42
0.000000001
43
0.0000000001
44
0.0000000001
40
0
40
0
40
0
40
1
40
1
40
1
10
106.83288992552129
20
-44.167351567370304
30
0
10
106.30762106835206
20
-43.999143997817463
30
0
10
105.91352007572641
20
-43.584829725628296
30
0
0
SPLINE
5
507
100
AcDbEntity
8
0
100
AcDbSpline
70
0
71
2
72
6
73
3
74
0
42
0.000000001
43
0.0000000001
44
0.0000000001
40
0
40
0
40
0
40
1
40
1
40
1
10
105.91352007572641
20
-43.584829725628296
30
0
10
105.51941907344207
20
-43.170516645492896
30
0
10
105.52247828899596
20
-42.792956264181335
30
0
0
SPLINE
5
508
100
AcDbEntity
8
0
100
AcDbSpline
70
0
71
2
72
6
73
3
74
0
42
0.000000001
43
0.0000000001
44
0.0000000001
40
0
40
0
40
0
40
1
40
1
40
1
10
105.52247828899596
20
-42.792956264181335
30
0
10
105.52340410613569
20
-42.678694334563275
30
0
10
105.58412596972489
20
-42.542559663544914
30
0
0
SPLINE
5
509
100
AcDbEntity
8
0
100
AcDbSpline
70
0
71
2
72
6
73
3
74
0
42
0.000000001
43
0.0000000001
44
0.0000000001
40
0
40
0
40
0
40
1
40
1
40
1
10
105.58412596972489
20
-42.542559663544914
30
0
10
105.29577813811895
20
-42.259519124893579
30
0
10
104.97693841285832
20
-42.06069050072189
30
0
0
SPLINE
5
510
100
AcDbEntity
8
0
100
AcDbSpline
70
0
71
2
72
6
73
3
74
0
42
0.000000001
43
0.0000000001
44
0.0000000001
40
0
40
0
40
0
40
1
40
1
40
1
10
104.97693841285832
20
-42.06069050072189
30
0
10
104.88338189366063
20
-42.263629666051315
30
0
10
104.88128874312628
20
-42.521960829702522
30
0
0
SPLINE
5
511
100
AcDbEntity
8
0
100
AcDbSpline
70
0
71
2
72
6
73
3
74
0
42
0.000000001
43
0.0000000001
44
0.0000000001
40
0
40
0
40
0
40
1
40
1
40
1
10
104.88128874312628
20
-42.521960829702522
30
0
10
104.87750497880774
20
-42.98894312425935
30
0
10
105.13850360047505
20
-43.428261579614535
30
0
0
SPLINE
5
512
100
AcDbEntity
8
0
100
AcDbSpline
70
0
71
2
72
6
73
3
74
0
42
0.000000001
43
0.0000000001
44
0.0000000001
40
0
40
0
40
0
40
1
40
1
40
1
10
105.13850360047505
20
-43.428261579614535
30
0
10
105.3995019241289
20
-43.86758003255504
30
0
10
105.86643252356943
20
-44.18436241008191
30
0
0
SPLINE
5
513
100
AcDbEntity
8
0
100
AcDbSpline
70
0
71
2
72
6
73
3
74
0
42
0.000000001
43
0.0000000001
44
0.0000000001
40
0
40
0
40
0
40
1
40
1
40
1
10
105.86643252356943
20
-44.18436241008191
30
0
10
106.08383255647641
20
-44.332687008194902
30
0
10
106.27068634554077
20
-44.418658792682649
30
0
0
SPLINE
5
514
100
AcDbEntity
8
0
100
AcDbSpline
70
0
71
2
72
6
73
3
74
0
42
0.000000001
43
0.0000000001
44
0.0000000001
40
0
40
0
40
0
40
1
40
1
40
1
10
106.27068634554077
20
-44.418658792682649
30
0
10
106.4575404133011
20
-44.504632963692615
30
0
10
106.97515617599149
20
-44.697620170554529
30
0
0
SPLINE
5
515
100
AcDbEntity
8
0
100
AcDbSpline
70
0
71
2
72
6
73
3
74
0
42
0.000000001
43
0.0000000001
44
0.0000000001
40
0
40
0
40
0
40
1
40
1
40
1
10
106.97515617599149
20
-44.697620170554529
30
0
10
107.10395918059194
20
-44.743378296056548
30
0
10
107.24504131131148
20
-44.806624351974804
30
0
0
SPLINE
5
516
100
AcDbEntity
8
0
100
AcDbSpline
70
0
71
2
72
6
73
3
74
0
42
0.000000001
43
0.0000000001
44
0.0000000001
40
0
40
0
40
0
40
1
40
1
40
1
10
107.24009660041135
20
-44.190523835455799
30
0
10
107.50091140808368
20
-44.192637109930047
30
0
10
107.66122270294022
20
-44.028742311118222
30
0
0
SPLINE
5
517
100
AcDbEntity
8
0
100
AcDbSpline
70
0
71
2
72
6
73
3
74
0
42
0.000000001
43
0.0000000001
44
0.0000000001
40
0
40
0
40
0
40
1
40
1
40
1
10
107.66122270294022
20
-44.028742311118222
30
0
10
107.8215336997833
20
-43.864847509891717
30
0
10
107.82372747484649
20
-43.594097530107888
30
0
0
SPLINE
5
518
100
AcDbEntity
8
0
100
AcDbSpline
70
0
71
2
72
6
73
3
74
0
42
0.000000001
43
0.0000000001
44
0.0000000001
40
0
40
0
40
0
40
1
40
1
40
1
10
107.82372747484649
20
-43.594097530107888
30
0
10
107.82914148595887
20
-42.925914440682007
30
0
10
107.138697416806
20
-42.295566579752077
30
0
0
SPLINE
5
519
100
AcDbEntity
8
0
100
AcDbSpline
70
0
71
2
72
6
73
3
74
0
42
0.000000001
43
0.0000000001
44
0.0000000001
40
0
40
0
40
0
40
1
40
1
40
1
10
107.138697416806
20
-42.295566579752077
30
0
10
106.44825335731183
20
-41.665217526768359
30
0
10
105.70306866084051
20
-41.659179603493556
30
0
0
SPLINE
5
520
100
AcDbEntity
8
0
100
AcDbSpline
70
0
71
2
72
6
73
3
74
0
42
0.000000001
43
0.0000000001
44
0.0000000001
40
0
40
0
40
0
40
1
40
1
40
1
10
105.70306866084051
20
-41.659179603493556
30
0
10
105.21373058995893
20
-41.6552146995692
30
0
10
105.00464447157448
20
-42.013717292393096
30
0
0
SPLINE
5
521
100
AcDbEntity
8
0
100
AcDbSpline
70
0
71
2
72
6
73
3
74
0
42
0.000000001
43
0.0000000001
44
0.0000000001
40
0
40
0
40
0
40
1
40
1
40
1
10
105.00464447157448
20
-42.013717292393096
30
0
10
105.28147798336451
20
-42.184879507286858
30
0
10
105.60928741174399
20
-42.503017854537191
30
0
0
SPLINE
5
522
100
AcDbEntity
8
0
100
AcDbSpline
70
0
71
2
72
6
73
3
74
0
42
0.000000001
43
0.0000000001
44
0.0000000001
40
0
40
0
40
0
40
1
40
1
40
1
10
105.60928741174399
20
-42.503017854537191
30
0
10
105.75220074996031
20
-42.340224288852689
30
0
10
105.94843276671986
20
-42.341814275693352
30
0
0
SPLINE
5
523
100
AcDbEntity
8
0
100
AcDbSpline
70
0
71
2
72
6
73
3
74
0
42
0.000000001
43
0.0000000001
44
0.0000000001
40
0
40
0
40
0
40
1
40
1
40
1
10
105.94843276671986
20
-42.341814275693352
30
0
10
106.09746988482217
20
-42.343021861797119
30
0
10
106.20227276399586
20
-42.438267626415168
30
0
0
SPLINE
5
524
100
AcDbEntity
8
0
100
AcDbSpline
70
0
71
2
72
6
73
3
74
0
42
0.000000001
43
0.0000000001
44
0.0000000001
40
0
40
0
40
0
40
1
40
1
40
1
10
106.20227276399586
20
-42.438267626415168
30
0
10
106.30707594118297
20
-42.533513393447883
30
0
10
106.30598911320664
20
-42.667646859342661
30
0
0
SPLINE
5
525
100
AcDbEntity
8
0
100
AcDbSpline
70
0
71
2
72
6
73
3
74
0
42
0.000000001
43
0.0000000001
44
0.0000000001
40
0
40
0
40
0
40
1
40
1
40
1
10
106.30598911320664
20
-42.667646859342661
30
0
10
106.30464064986491
20
-42.834070677646807
30
0
10
106.15063564769341
20
-42.832822838833884
30
0
0
SPLINE
5
526
100
AcDbEntity
8
0
100
AcDbSpline
70
0
71
2
72
6
73
3
74
0
42
0.000000001
43
0.0000000001
44
0.0000000001
40
0
40
0
40
0
40
1
40
1
40
1
10
106.15063564769341
20
-42.832822838833884
30
0
10
106.07114950258649
20
-42.832178795487543
30
0
10
106.0132798770459
20
-42.769606976069511
30
0
0
SPLINE
5
527
100
AcDbEntity
8
0
100
AcDbSpline
70
0
71
2
72
6
73
3
74
0
42
0.000000001
43
0.0000000001
44
0.0000000001
40
0
40
0
40
0
40
1
40
1
40
1
10
106.0132798770459
20
-42.769606976069511
30
0
10
105.95540995349188
20
-42.707035154236806
30
0
10
105.95609424471802
20
-42.622581721087599
30
0
0
SPLINE
5
528
100
AcDbEntity
8
0
100
AcDbSpline
70
0
71
2
72
6
73
3
74
0
42
0.000000001
43
0.0000000001
44
0.0000000001
40
0
40
0
40
0
40
1
40
1
40
1
10
105.95609424471802
20
-42.622581721087599
30
0
10
105.95708043850679
20
-42.500868263379218
30
0
10
106.07382631015945
20
-42.501814206873533
30
0
0
SPLINE
5
529
100
AcDbEntity
8
0
100
AcDbSpline
70
0
71
2
72
6
73
3
74
0
42
0.000000001
43
0.0000000001
44
0.0000000001
40
0
40
0
40
0
40
1
40
1
40
1
10
106.07382631015945
20
-42.501814206873533
30
0
10
106.11108544067831
20
-42.502116102192133
30
0
10
106.15311119654997
20
-42.527297074538907
30
0
0
SPLINE
5
530
100
AcDbEntity
8
0
100
AcDbSpline
70
0
71
2
72
6
73
3
74
0
42
0.000000001
43
0.0000000001
44
0.0000000001
40
0
40
0
40
0
40
1
40
1
40
1
10
106.15311119654997
20
-42.527297074538907
30
0
10
106.18532223559481
20
-42.537494487701402
30
0
10
106.19029011966397
20
-42.53753474041055
30
0
0
SPLINE
5
531
100
AcDbEntity
8
0
100
AcDbSpline
70
0
71
2
72
6
73
3
74
0
42
0.000000001
43
0.0000000001
44
0.0000000001
40
0
40
0
40
0
40
1
40
1
40
1
10
106.19029011966397
20
-42.53753474041055
30
0
10
106.20519377187152
20
-42.537655498537994
30
0
10
106.2053145251696
20
-42.52275244235733
30
0
0
SPLINE
5
532
100
AcDbEntity
8
0
100
AcDbSpline
70
0
71
2
72
6
73
3
74
0
42
0.000000001
43
0.0000000001
44
0.0000000001
40
0
40
0
40
0
40
1
40
1
40
1
10
106.2053145251696
20
-42.52275244235733
30
0
10
106.20565667561203
20
-42.480525129755847
30
0
10
106.11659674356501
20
-42.435089025927006
30
0
0
SPLINE
5
533
100
AcDbEntity
8
0
100
AcDbSpline
70
0
71
2
72
6
73
3
74
0
42
0.000000001
43
0.0000000001
44
0.0000000001
40
0
40
0
40
0
40
1
40
1
40
1
10
106.11659674356501
20
-42.435089025927006
30
0
10
106.02753680185927
20
-42.389654114151931
30
0
10
105.94059853263515
20
-42.388949689327184
30
0
0
SPLINE
5
534
100
AcDbEntity
8
0
100
AcDbSpline
70
0
71
2
72
6
73
3
74
0
42
0.000000001
43
0.0000000001
44
0.0000000001
40
0
40
0
40
0
40
1
40
1
40
1
10
105.94059853263515
20
-42.388949689327184
30
0
10
105.77665806033872
20
-42.387621347510645
30
0
10
105.64626476846945
20
-42.538095534366953
30
0
0
SPLINE
5
535
100
AcDbEntity
8
0
100
AcDbSpline
70
0
71
2
72
6
73
3
74
0
42
0.000000001
43
0.0000000001
44
0.0000000001
40
0
40
0
40
0
40
1
40
1
40
1
10
105.64626476846945
20
-42.538095534366953
30
0
10
106.16881685854067
20
-43.041636175044545
30
0
10
106.86303967839224
20
-44.125365773438375
30
0
0
SPLINE
5
536
100
AcDbEntity
8
0
100
AcDbSpline
70
0
71
2
72
6
73
3
74
0
42
0.000000001
43
0.0000000001
44
0.0000000001
40
0
40
0
40
0
40
1
40
1
40
1
10
106.86303967839224
20
-44.125365773438375
30
0
10
107.08112401218409
20
-44.189235746348416
30
0
10
107.24009660041135
20
-44.190523835455799
30
0
0
ENDSEC
0
SECTION
2
OBJECTS
0
DICTIONARY
5
C
100
AcDbDictionary
3
ACAD_GROUP
350
D
3
ACAD_MLINESTYLE
350
17
0
DICTIONARY
5
D
100
AcDbDictionary
0
DICTIONARY
5
1A
330
C
100
AcDbDictionary
0
DICTIONARY
5
17
100
AcDbDictionary
0
ENDSEC
0
EOF
